<svg width="29" height="28" viewBox="0 0 29 28" fill="none" xmlns="http://www.w3.org/2000/svg">
    <path d="M26.2162 7.23851C24.9598 5.08576 23.2555 3.38142 21.1029 2.12512C18.95 0.868747 16.5997 0.240723 14.0504 0.240723C11.5013 0.240723 9.15021 0.868939 6.99778 2.12512C4.84503 3.38136 3.14083 5.08576 1.88439 7.23851C0.628153 9.39119 0 11.7419 0 14.2907C0 17.3523 0.893241 20.1054 2.68017 22.5507C4.46691 24.9961 6.77512 26.6883 9.60459 27.6274C9.93395 27.6885 10.1778 27.6455 10.3363 27.4995C10.4949 27.3532 10.5741 27.1701 10.5741 26.9508C10.5741 26.9142 10.5709 26.5851 10.5649 25.9629C10.5604 25.5229 10.5576 25.1225 10.5564 24.762C10.5556 24.5389 10.3546 24.3698 10.1348 24.4078V24.4078C9.86654 24.4569 9.52808 24.4777 9.11946 24.4719C8.71103 24.4661 8.28703 24.4233 7.84803 24.3438C7.40884 24.2649 7.00035 24.0819 6.62223 23.7953C6.2443 23.5087 5.976 23.1335 5.81741 22.6704L5.63447 22.2494C5.51253 21.9691 5.32055 21.6578 5.05828 21.3165C4.84149 21.0341 4.62269 20.8269 4.40179 20.6947C4.3119 20.6409 4.2196 20.5907 4.13441 20.5297V20.5297C4.04906 20.4687 3.96986 20.3952 3.89662 20.3099C3.82345 20.2247 3.76866 20.1393 3.73207 20.0538C3.69542 19.9683 3.72579 19.8981 3.82351 19.8431C3.86403 19.8203 3.9181 19.8023 3.9858 19.7891C4.22745 19.742 4.47633 19.7796 4.71983 19.816V19.816C4.96377 19.8649 5.26551 20.0109 5.62543 20.255C5.98517 20.4988 6.28088 20.8159 6.51265 21.206C6.79331 21.7062 7.13145 22.0873 7.52803 22.3496C7.92428 22.6119 8.32381 22.7428 8.72621 22.7428C9.12862 22.7428 9.47618 22.7123 9.76901 22.6516C9.92029 22.6201 10.0667 22.5803 10.2083 22.5324C10.4532 22.4496 10.6158 22.1728 10.6777 21.9218V21.9218C10.836 21.279 10.4391 20.3655 9.79573 20.2093C9.73413 20.1943 9.67334 20.179 9.61337 20.1631C9.05858 20.0167 8.48528 19.7789 7.89385 19.4493C7.30209 19.1202 6.81119 18.7114 6.42102 18.2238C6.03079 17.7359 5.71053 17.0954 5.46069 16.3028C5.21072 15.5099 5.08571 14.5953 5.08571 13.5586C5.08571 12.8699 5.19062 12.2291 5.40041 11.6361C5.84399 10.3823 6.12095 9.07128 6.24208 7.74684V7.74684C6.33527 6.72778 7.28056 5.92913 8.23243 6.30477V6.30477C8.92767 6.57921 9.43671 6.81431 9.76004 7.00924V7.00924C10.2602 7.31064 10.8609 7.40361 11.4331 7.28738C12.2856 7.11422 13.1579 7.02763 14.0502 7.02763C14.9765 7.02763 15.8814 7.12093 16.7648 7.30751C17.2769 7.41568 17.8157 7.34371 18.2583 7.06428V7.06428C18.7337 6.77145 19.2951 6.50309 19.9411 6.25914V6.25914C20.8426 5.91914 21.6903 6.56787 21.8257 7.52172C21.8307 7.5572 21.8353 7.59257 21.8396 7.62784C22.001 8.96188 22.265 10.3889 22.7077 11.6576C22.9126 12.2447 23.0151 12.8785 23.0151 13.5588C23.0151 14.5954 22.8896 15.513 22.64 16.312C22.3901 17.1111 22.0671 17.7509 21.6708 18.2329C21.2741 18.7149 20.7801 19.1204 20.1887 19.4495C19.5971 19.7789 19.0236 20.0166 18.4688 20.1631V20.1631C17.7696 20.3476 17.3353 21.434 17.4655 22.1453C17.5183 22.4339 17.5448 22.749 17.5448 23.0905V26.9503C17.5448 27.1696 17.621 27.3526 17.7736 27.4989C17.9261 27.645 18.1668 27.688 18.4962 27.6268C21.326 26.6878 23.6342 24.9956 25.4209 22.5502C27.2074 20.1049 28.101 17.3518 28.101 14.2902C28.1003 11.7418 27.4719 9.39119 26.2162 7.23851Z"
          fill="url(#paint0_linear_428_117)"/>
    <defs>
        <linearGradient id="paint0_linear_428_117" x1="45.5" y1="12.5" x2="-5.5" y2="14" gradientUnits="userSpaceOnUse">
            <stop stop-color="#FC3076"/>
            <stop offset="0.415" stop-color="#FC3076"/>
            <stop offset="1" stop-color="#3C4BE3"/>
        </linearGradient>
    </defs>
</svg>