<svg width="56" height="41" viewBox="0 0 56 41" fill="none" xmlns="http://www.w3.org/2000/svg">
    <path d="M54.8441 15.4213C53.5831 14.5463 50.6932 14.2182 48.4339 14.6557C48.1712 12.4682 46.9627 10.5543 44.861 8.85902L43.6526 7.98405L42.8119 9.24182C41.761 10.8824 41.2356 13.1792 41.3932 15.3666C41.4458 16.1322 41.7085 17.4993 42.4966 18.7024C41.761 19.1399 40.2373 19.6867 38.2407 19.6867H0.252606L0.147521 20.1242C-0.220275 22.3116 -0.220275 29.1473 4.08819 34.3971C7.34582 38.3891 12.1797 40.4124 18.5373 40.4124C32.3034 40.4124 42.4966 33.7955 47.278 21.8194C49.1695 21.8741 53.2153 21.8194 55.2644 17.718C55.317 17.6087 55.422 17.3899 55.7898 16.5696L56 16.1322L54.8441 15.4213ZM30.6221 0H24.8424V5.46853H30.6221V0ZM30.6221 6.56224H24.8424V12.0308H30.6221V6.56224ZM23.7916 6.56224H18.0119V12.0308H23.7916V6.56224ZM16.9611 6.56224H11.1814V12.0308H16.9611V6.56224ZM10.1306 13.1245H4.35091V18.593H10.1306V13.1245ZM16.9611 13.1245H11.1814V18.593H16.9611V13.1245ZM23.7916 13.1245H18.0119V18.593H23.7916V13.1245ZM30.6221 13.1245H24.8424V18.593H30.6221V13.1245ZM37.4526 13.1245H31.6729V18.593H37.4526V13.1245Z"
          fill="#2396ED"/>
</svg>