<svg width="29" height="28" viewBox="0 0 29 28" fill="none" xmlns="http://www.w3.org/2000/svg">
    <path d="M26.2162 7.41136C24.9598 5.25861 23.2555 3.55427 21.1029 2.29797C18.95 1.0416 16.5997 0.413574 14.0504 0.413574C11.5013 0.413574 9.15021 1.04179 6.99778 2.29797C4.84503 3.55421 3.14083 5.25861 1.88439 7.41136C0.628153 9.56404 0 11.9148 0 14.4635C0 17.5252 0.893241 20.2783 2.68017 22.7235C4.46691 25.169 6.77512 26.8611 9.60459 27.8002C9.93395 27.8613 10.1778 27.8183 10.3363 27.6723C10.4949 27.5261 10.5741 27.3429 10.5741 27.1237C10.5741 27.0871 10.5709 26.7579 10.5649 26.1358C10.5604 25.6957 10.5576 25.2954 10.5564 24.9348C10.5556 24.7118 10.3546 24.5426 10.1348 24.5806V24.5806C9.86654 24.6298 9.52808 24.6506 9.11946 24.6447C8.71103 24.639 8.28703 24.5962 7.84803 24.5166C7.40884 24.4377 7.00035 24.2548 6.62223 23.9682C6.2443 23.6816 5.976 23.3064 5.81741 22.8432L5.63447 22.4222C5.51253 22.142 5.32055 21.8306 5.05828 21.4893C4.84149 21.207 4.62269 20.9998 4.40179 20.8675C4.3119 20.8137 4.2196 20.7635 4.13441 20.7025V20.7025C4.04906 20.6416 3.96986 20.5681 3.89662 20.4828C3.82345 20.3975 3.76866 20.3122 3.73207 20.2267C3.69542 20.1411 3.72579 20.071 3.82351 20.0159C3.86403 19.9931 3.9181 19.9752 3.9858 19.962C4.22745 19.9148 4.47633 19.9524 4.71983 19.9888V19.9888C4.96377 20.0377 5.26551 20.1837 5.62543 20.4278C5.98517 20.6717 6.28088 20.9888 6.51265 21.3789C6.79331 21.879 7.13145 22.2602 7.52803 22.5225C7.92428 22.7847 8.32381 22.9156 8.72621 22.9156C9.12862 22.9156 9.47618 22.8851 9.76901 22.8244C9.92029 22.7929 10.0667 22.7531 10.2083 22.7053C10.4532 22.6224 10.6158 22.3456 10.6777 22.0947V22.0947C10.836 21.4518 10.4391 20.5383 9.79573 20.3821C9.73413 20.3672 9.67334 20.3518 9.61337 20.336C9.05858 20.1895 8.48528 19.9518 7.89385 19.6222C7.30209 19.293 6.81119 18.8843 6.42102 18.3966C6.03079 17.9087 5.71053 17.2682 5.46069 16.4756C5.21072 15.6827 5.08571 14.7681 5.08571 13.7315C5.08571 13.0428 5.19062 12.4019 5.40041 11.809C5.84399 10.5551 6.12095 9.24413 6.24208 7.91969V7.91969C6.33527 6.90063 7.28056 6.10198 8.23243 6.47762V6.47762C8.92767 6.75206 9.43671 6.98716 9.76004 7.18209V7.18209C10.2602 7.4835 10.8609 7.57647 11.4331 7.46023C12.2856 7.28707 13.1579 7.20048 14.0502 7.20048C14.9765 7.20048 15.8814 7.29378 16.7648 7.48036C17.2769 7.58853 17.8157 7.51656 18.2583 7.23713V7.23713C18.7337 6.9443 19.2951 6.67594 19.9411 6.432V6.432C20.8426 6.092 21.6903 6.74072 21.8257 7.69457C21.8307 7.73005 21.8353 7.76542 21.8396 7.80069C22.001 9.13473 22.265 10.5618 22.7077 11.8305C22.9126 12.4176 23.0151 13.0513 23.0151 13.7317C23.0151 14.7683 22.8896 15.6858 22.64 16.4848C22.3901 17.2839 22.0671 17.9238 21.6708 18.4058C21.2741 18.8877 20.7801 19.2933 20.1887 19.6224C19.5971 19.9517 19.0236 20.1895 18.4688 20.3359V20.3359C17.7696 20.5205 17.3353 21.6068 17.4655 22.3182C17.5183 22.6068 17.5448 22.9219 17.5448 23.2633V27.1232C17.5448 27.3424 17.621 27.5255 17.7736 27.6718C17.9261 27.8178 18.1668 27.8608 18.4962 27.7996C21.326 26.8607 23.6342 25.1685 25.4209 22.723C27.2074 20.2778 28.101 17.5247 28.101 14.463C28.1003 11.9146 27.4719 9.56404 26.2162 7.41136Z"
          fill="#8CB0CB"/>
</svg>