<svg width="34" height="50" viewBox="0 0 34 50" fill="none" xmlns="http://www.w3.org/2000/svg">
    <path d="M8.33333 49.9999C12.9333 49.9999 16.6667 46.2666 16.6667 41.6666V33.3333H8.33333C3.73333 33.3333 0 37.0666 0 41.6666C0 46.2666 3.73333 49.9999 8.33333 49.9999Z"
          fill="#0ACF83"/>
    <path d="M0 25.0001C0 20.4001 3.73333 16.6667 8.33333 16.6667H16.6667V33.3334H8.33333C3.73333 33.3334 0 29.6001 0 25.0001Z"
          fill="#A259FF"/>
    <path d="M0 8.33333C0 3.73333 3.73333 0 8.33333 0H16.6667V16.6667H8.33333C3.73333 16.6667 0 12.9333 0 8.33333Z"
          fill="#F24E1E"/>
    <path d="M16.6666 0H25C29.6 0 33.3333 3.73333 33.3333 8.33333C33.3333 12.9333 29.6 16.6667 25 16.6667H16.6666V0Z"
          fill="#FF7262"/>
    <path d="M33.3333 25.0001C33.3333 29.6001 29.6 33.3334 25 33.3334C20.4 33.3334 16.6666 29.6001 16.6666 25.0001C16.6666 20.4001 20.4 16.6667 25 16.6667C29.6 16.6667 33.3333 20.4001 33.3333 25.0001Z"
          fill="#1ABCFE"/>
</svg>