<svg width="50" height="50" viewBox="0 0 50 50" fill="none" xmlns="http://www.w3.org/2000/svg">
    <path d="M1.04529 27.5236C-0.348429 26.1298 -0.348429 23.8702 1.04529 22.4764L22.4764 1.04529C23.8702 -0.348429 26.1298 -0.348429 27.5236 1.04529L48.9547 22.4764C50.3484 23.8702 50.3484 26.1298 48.9547 27.5236L27.5236 48.9547C26.1298 50.3484 23.8702 50.3484 22.4764 48.9547L1.04529 27.5236Z"
          fill="#EE513B"/>
    <path d="M18.1342 5L16 7.17115L21.5122 12.7787C21.2892 13.2653 21.1647 13.8081 21.1647 14.3805C21.1647 16.0054 22.1683 17.3919 23.5793 17.9334V31.6509C22.1683 32.1923 21.1647 33.5788 21.1647 35.2038C21.1647 37.3004 22.8354 39 24.8963 39C26.9573 39 28.628 37.3004 28.628 35.2038C28.628 33.7307 27.8032 32.4533 26.5976 31.8242V17.9521L31.8668 23.3124C31.6546 23.7892 31.5366 24.3185 31.5366 24.8759C31.5366 26.9725 33.2074 28.6721 35.2683 28.6721C37.3293 28.6721 39 26.9725 39 24.8759C39 22.7793 37.3293 21.0797 35.2683 21.0797C34.8678 21.0797 34.4821 21.1438 34.1204 21.2626L28.4614 15.5058C28.5697 15.1503 28.628 14.7722 28.628 14.3805C28.628 12.2839 26.9573 10.5842 24.8963 10.5842C24.5112 10.5842 24.1398 10.6436 23.7902 10.7538L18.1342 5Z"
          fill="white"/>
</svg>