<svg width="45" height="62" viewBox="0 0 45 62" fill="none" xmlns="http://www.w3.org/2000/svg">
    <path d="M44.1722 29.8754C44.1722 42.1552 34.436 52.1194 22.4194 52.1194C10.4027 52.1194 0.666626 42.1552 0.666626 29.8754C0.666626 17.5956 10.4027 7.63147 22.4194 7.63147C34.436 7.63147 44.1722 17.5956 44.1722 29.8754Z"
          fill="#D33833"/>
    <path d="M1.56129 35.3837C1.56129 35.3837 -0.0175435 12.1924 21.3668 11.5258L19.8757 9.03479L8.28008 12.9292L4.96454 16.736L2.07002 22.2794L0.421021 28.7351L0.912212 33.0505"
          fill="#EF3D3A"/>
    <path d="M7.52575 14.701C3.71902 18.613 1.35078 23.9986 1.35078 29.963C1.35078 35.9275 3.71902 41.3131 7.52575 45.225C11.35 49.137 16.5953 51.5404 22.4194 51.5404C28.2435 51.5404 33.4887 49.137 37.313 45.225C41.1197 41.3131 43.488 35.9275 43.488 29.963C43.488 23.9986 41.1197 18.613 37.313 14.701C33.4887 10.8066 28.2435 8.38569 22.4194 8.38569C16.6128 8.38569 11.35 10.789 7.52575 14.701ZM6.56091 46.1548C2.50858 42.0148 0 36.2783 0 29.963C0 23.6477 2.50858 17.9113 6.56091 13.7537C10.6132 9.61367 16.2269 7.03491 22.4194 7.03491C28.6119 7.03491 34.2255 9.61367 38.2779 13.7537C42.3302 17.8938 44.8388 23.6302 44.8388 29.963C44.8388 36.2783 42.3302 42.0148 38.2779 46.1548C34.2255 50.3124 28.6119 52.8736 22.4194 52.8736C16.2269 52.8736 10.6132 50.3124 6.56091 46.1548Z"
          fill="#231F20"/>
    <path d="M31.5766 29.9983L28.2611 30.4895L23.7877 30.9982L20.8932 31.0684L18.0689 30.9807L15.9111 30.314L13.999 28.244L12.5079 24.0163L12.1746 23.1041L10.1923 22.4374L9.03446 20.5253L8.20996 17.7887L9.12217 15.3853L11.2799 14.631L13.0166 15.4555L13.8411 17.2799L14.841 17.122L15.1744 16.701L14.841 14.7889L14.7533 12.3856L15.2445 9.07002L15.227 7.17542L16.7356 4.75455L19.3846 2.84242L24.0158 0.860107L29.1558 1.61444L33.6291 4.84227L35.6991 8.15781L37.0324 10.5611L37.3657 16.5256L36.3658 21.6656L34.5413 26.2266L32.8222 28.6651"
          fill="#F0D6B7"/>
    <path d="M28.7698 44.3305L16.9286 44.8217V46.804L17.9285 53.7684L17.4374 54.3473L9.15727 51.5229L8.57836 50.523L7.75386 41.1553L5.80664 35.5417L5.38562 34.2084L12.0167 29.6474L14.0867 28.8229L15.9112 31.0683L17.49 32.4717L19.3144 33.0506L20.1389 33.2962L21.1388 37.6117L21.8932 38.5239L23.8053 37.8573L22.4721 40.436L29.6645 43.8393L28.7698 44.3305Z"
          fill="#335061"/>
    <path d="M9.12213 15.42L11.2799 14.6656L13.0166 15.4901L13.8411 17.3145L14.841 17.1567L15.0866 16.1567L14.5954 14.2446L15.0866 9.68354L14.6656 7.19249L16.1567 5.45578L19.3845 2.89457L18.4723 1.64905L13.9112 3.89449L11.9991 5.38561L10.929 7.70123L9.28001 9.94668L8.78882 12.5956L9.12213 15.42Z"
          fill="#6D6B6D"/>
    <path d="M12.5254 7.63131C12.5254 7.63131 13.7709 4.56136 18.7355 3.07025C23.7 1.57913 18.9811 2.00015 18.9811 2.00015L13.5955 4.07017L11.5255 6.14019L10.6133 7.78919L12.5254 7.63131Z"
          fill="#DCD9D8"/>
    <path d="M10.0343 14.8413C10.0343 14.8413 8.29763 9.03475 14.9287 8.21025L14.6831 7.21033L10.1221 8.28042L8.78882 12.5959L9.12213 15.4202L10.0343 14.8413Z"
          fill="#DCD9D8"/>
    <path d="M12.6833 22.5424L13.771 21.4899C13.771 21.4899 14.2622 21.5425 14.3499 22.1214C14.4376 22.7003 14.6832 27.928 18.2443 30.7348C18.5776 30.9979 15.5954 30.3138 15.5954 30.3138L12.9465 26.1737"
          fill="#F7E4CD"/>
    <path d="M27.9277 20.9639C27.9277 20.9639 28.1207 18.4553 28.8048 18.6483C29.489 18.8413 29.489 19.5254 29.489 19.5254C29.489 19.5254 27.84 20.578 27.9277 20.9639Z"
          fill="#F7E4CD"/>
    <path d="M34.8044 11.7714C34.8044 11.7714 33.4361 12.052 33.3133 13.2625C33.1905 14.4729 34.8044 13.5081 35.05 13.4204"
          fill="#F7E4CD"/>
    <path d="M24.7876 11.859C24.7876 11.859 22.9631 12.1046 22.9631 13.2624C22.9631 14.4202 25.0332 14.3325 25.6121 13.8413"
          fill="#F7E4CD"/>
    <path d="M13.5253 17.2446C13.5253 17.2446 10.3852 15.3325 10.0519 17.1569C9.7186 18.9814 8.98181 20.297 10.5431 22.2092L9.473 21.8759L8.47308 19.3147L8.13977 16.8236L10.0519 14.8413L12.2096 14.9992L13.4552 15.9991L13.5253 17.2446Z"
          fill="#F7E4CD"/>
    <path d="M15.0164 12.0168C15.0164 12.0168 16.4198 4.71906 23.5421 3.31566C29.4013 2.15785 32.4888 3.56125 33.6466 4.89449C33.6466 4.89449 28.4189 -1.31557 23.4544 0.579021C18.4898 2.49116 14.841 5.96458 14.9287 8.19249C15.069 12.0168 15.0164 12.0168 15.0164 12.0168Z"
          fill="#F7E4CD"/>
    <path d="M34.2255 5.71925C34.2255 5.71925 31.8222 5.63153 31.7345 7.78927C31.7345 7.78927 31.7345 8.12258 31.8924 8.45588C31.8924 8.45588 33.8045 6.29815 34.9623 7.45596"
          fill="#F7E4CD"/>
    <path d="M23.7175 8.68372C23.7175 8.68372 23.2965 5.38572 20.4896 7.29786C18.6652 8.54338 18.8406 10.2801 19.1564 10.6134C19.4897 10.9467 19.402 11.6133 19.6476 11.1572C19.8932 10.7011 19.823 9.20999 20.7352 8.78897C21.6299 8.36795 23.1386 7.91184 23.7175 8.68372Z"
          fill="#F7E4CD"/>
    <path d="M15.9286 31.0682L8.13971 34.5416C8.13971 34.5416 11.3675 47.3828 9.71854 51.3649L8.56074 50.9439L8.47302 46.0495L6.31529 36.787L5.40308 34.2258L13.5253 28.7526L15.9286 31.0682Z"
          fill="#49728B"/>
    <path d="M16.7181 38.1731L17.8233 39.5239V44.4884H16.5076C16.5076 44.4884 16.3497 41.015 16.3497 40.594C16.3497 40.1729 16.5076 38.6818 16.5076 38.6818"
          fill="#49728B"/>
    <path d="M16.753 45.2424L13.0165 45.4003L14.0866 46.1546L16.7355 46.5757" fill="#49728B"/>
    <path d="M29.5066 44.4182L32.5765 44.3304L33.3309 51.9439L30.1908 52.3649L29.5066 44.4182Z" fill="#335061"/>
    <path d="M30.3311 44.4182L34.9623 44.1726C34.9623 44.1726 36.8744 39.3659 36.8744 39.1203C36.8744 38.8747 38.5234 32.1559 38.5234 32.1559L34.7869 28.2615L34.0325 27.5948L32.0502 29.5772V37.2783L30.3311 44.4182Z"
          fill="#335061"/>
    <path d="M32.4011 43.8391L29.5066 44.418L29.9276 46.7336C30.9977 47.2248 32.8221 45.9091 32.8221 45.9091"
          fill="#49728B"/>
    <path d="M32.4889 29.3315L38.2955 33.6469L38.4534 31.6646L34.0677 27.6123L32.4889 29.3315Z" fill="#49728B"/>
    <path d="M19.6301 60.7324L17.9109 53.768L17.0514 48.628L16.911 44.8213L24.6824 44.4003H29.5066L29.068 53.1014L29.8223 59.8202L29.7346 61.0657L23.4368 61.5569L19.6301 60.7324Z"
          fill="white"/>
    <path d="M28.4365 44.3303C28.4365 44.3303 28.0155 52.9437 29.261 59.0836C29.261 59.0836 26.77 60.6624 23.1387 61.0659L30.1031 60.8203L30.9276 60.3291L29.9276 46.7512L29.6645 43.8391"
          fill="#DCD9D8"/>
    <path d="M33.4537 51.2947L36.6815 50.3825L42.8038 50.0492L43.7161 47.2248L42.0671 42.3304L40.1549 42.0848L37.506 42.9093L34.9799 44.1549L33.6291 43.9093L32.5765 44.3303"
          fill="white"/>
    <path d="M33.401 49.6282C33.401 49.6282 35.5587 48.6283 35.892 48.716L34.9798 44.1549L36.0499 43.7339C36.0499 43.7339 36.8043 48.0494 36.8043 48.5405C36.8043 48.5405 41.4355 48.7861 41.8565 48.7861C41.8565 48.7861 42.8564 46.874 42.6108 44.8917L43.5231 47.5406L43.6108 49.0317L42.2775 51.014L40.7864 51.3474L38.2954 51.2596L37.4709 50.1895L34.5764 50.6106L33.6641 50.9439"
          fill="#DCD9D8"/>
    <path d="M30.1381 43.7515L28.3136 39.1203L26.4015 36.3836C26.4015 36.3836 26.8225 35.2258 27.4014 35.2258H29.3136L31.138 35.8924L30.9801 38.9624L30.1381 43.7515Z"
          fill="white"/>
    <path d="M30.5064 42.1723C30.5064 42.1723 28.1908 37.6989 28.1908 37.0323C28.1908 37.0323 28.6118 36.0324 29.1907 36.278C29.7697 36.5236 31.0152 37.1902 31.0152 37.1902V35.6114L28.1908 35.0325L26.2787 35.2781L29.5065 42.9266L30.1731 43.0143"
          fill="#DCD9D8"/>
    <path d="M20.3669 31.2436L18.0689 30.998L15.9111 30.3314V31.0857L16.9637 32.2436L20.2792 33.7347" fill="white"/>
    <path d="M16.6653 31.4891C16.6653 31.4891 19.2265 32.5592 20.0686 32.3136L20.1563 33.3136L17.8407 32.8224L16.4373 31.8224L16.6653 31.4891Z"
          fill="#DCD9D8"/>
    <path d="M33.4537 35.5065C32.0503 35.4714 30.7697 35.296 29.6645 34.9802C29.7347 34.5241 29.5943 34.0856 29.7171 33.7523C30.0329 33.5242 30.5416 33.5242 31.0153 33.4716C30.6118 33.2786 30.0329 33.1909 29.5768 33.3137C29.5592 32.9979 29.4189 32.805 29.3312 32.5594C30.1206 32.2787 31.9801 30.4367 33.0327 31.0332C33.5414 31.3314 33.7519 32.9804 33.787 33.8049C33.8221 34.4715 33.7168 35.1381 33.4537 35.5065Z"
          fill="#D33833"/>
    <path d="M33.4537 35.5065C32.0503 35.4714 30.7697 35.296 29.6645 34.9802C29.7347 34.5241 29.5943 34.0856 29.7171 33.7523C30.0329 33.5242 30.5416 33.5242 31.0153 33.4716C30.6118 33.2786 30.0329 33.1909 29.5768 33.3137C29.5592 32.9979 29.4189 32.805 29.3312 32.5594C30.1206 32.2787 31.9801 30.4367 33.0327 31.0332C33.5414 31.3314 33.7519 32.9804 33.787 33.8049C33.8221 34.4715 33.7168 35.1381 33.4537 35.5065Z"
          fill="#0F1727" stroke="#D33833" stroke-width="3.83693"/>
    <path d="M26.7348 33.2084C26.7348 33.3137 26.7348 33.4189 26.7172 33.5242C26.2787 33.8049 25.577 33.8049 25.0858 34.0505C25.7875 34.0855 26.3488 34.261 26.84 34.489C26.8225 34.7522 26.8225 35.0328 26.8049 35.296C25.998 35.8398 25.2612 36.6643 24.3139 37.1906C23.8578 37.4362 22.2965 38.0677 21.8228 37.9449C21.5597 37.8747 21.5246 37.5414 21.4194 37.2257C21.1913 36.559 20.665 35.4714 20.6124 34.4539C20.5598 33.1733 20.4194 31.0156 21.8053 31.2787C22.928 31.4892 24.2262 31.998 25.0858 32.4716C25.6296 32.7874 25.9278 33.1382 26.7348 33.2084Z"
          fill="#D33833"/>
    <path d="M26.7348 33.2084C26.7348 33.3137 26.7348 33.4189 26.7172 33.5242C26.2787 33.8049 25.577 33.8049 25.0858 34.0505C25.7875 34.0855 26.3488 34.261 26.84 34.489C26.8225 34.7522 26.8225 35.0328 26.8049 35.296C25.998 35.8398 25.2612 36.6643 24.3139 37.1906C23.8578 37.4362 22.2965 38.0677 21.8228 37.9449C21.5597 37.8747 21.5246 37.5414 21.4194 37.2257C21.1913 36.559 20.665 35.4714 20.6124 34.4539C20.5598 33.1733 20.4194 31.0156 21.8053 31.2787C22.928 31.4892 24.2262 31.998 25.0858 32.4716C25.6296 32.7874 25.9278 33.1382 26.7348 33.2084Z"
          fill="#0F1727" stroke="#D33833" stroke-width="3.83693"/>
    <path d="M27.5242 34.7344C27.4014 34.0327 27.2611 33.8398 27.3137 33.2258C29.1908 31.9802 29.5241 35.366 27.5242 34.7344Z"
          fill="#D33833"/>
    <path d="M27.5242 34.7344C27.4014 34.0327 27.2611 33.8398 27.3137 33.2258C29.1908 31.9802 29.5241 35.366 27.5242 34.7344Z"
          fill="#0F1727" stroke="#D33833" stroke-width="3.83693"/>
    <path d="M30.2258 35.2961C30.2258 35.2961 29.6469 34.4716 30.068 34.226C30.489 33.9804 30.8925 34.226 31.1381 33.8049C31.3836 33.3839 31.1381 33.1383 31.2258 32.6471C31.3135 32.1559 31.717 32.0682 32.138 31.9805C32.559 31.8928 33.7168 31.7349 33.8747 32.1384L33.3835 30.6473L32.3836 30.314L29.2435 32.1384L29.0856 33.0506V34.875"
          fill="#EF3D3A"/>
    <path d="M21.5247 38.0323C21.4194 36.7342 21.3142 35.4536 21.2089 34.1554C21.0335 32.2257 21.665 32.559 23.3491 32.559C23.6122 32.559 24.9279 32.8573 25.0156 33.0502C25.4717 33.98 24.2613 33.7695 25.5419 34.4712C26.612 35.0501 28.5241 34.1203 28.0856 32.8046C27.84 32.5064 26.8225 32.7169 26.4541 32.524C25.805 32.1907 25.156 31.8573 24.5069 31.524C23.6824 31.103 21.7878 30.4715 20.9107 31.0679C18.6828 32.5766 21.051 36.3658 21.8404 37.9446"
          fill="#EF3D3A"/>
    <path d="M23.7175 8.68377C21.4545 8.15749 20.3318 9.63107 19.6477 11.1573C19.0337 11.0169 19.2793 10.1749 19.4372 9.75387C19.8406 8.64869 21.4721 7.15757 22.8053 7.36808C23.3667 7.43825 24.1386 7.96453 23.7175 8.68377Z"
          fill="#231F20"/>
    <path d="M34.7167 11.2451H34.822C35.3307 12.2977 35.7693 13.4204 36.4183 14.3677C35.9798 15.3852 33.1554 16.2623 33.1905 14.4729C33.8045 14.2098 34.8571 14.4203 35.4009 14.0695C35.0851 13.2099 34.6465 12.4731 34.7167 11.2451Z"
          fill="#231F20"/>
    <path d="M24.8578 11.2804C25.349 12.1751 25.5069 13.1048 26.191 13.7714C26.5068 14.0697 27.1033 14.4381 26.805 15.2801C26.7349 15.4731 26.2261 15.9116 25.9279 15.9993C24.8578 16.3151 22.3492 16.0695 23.1913 14.7187C24.0859 14.7538 25.2788 15.2976 25.9454 14.6486C25.4367 13.8416 24.5245 12.2277 24.8578 11.2804Z"
          fill="#231F20"/>
    <path d="M34.3132 20.2971C32.6993 21.3321 30.8924 22.4724 28.2259 22.2092C27.6646 21.718 27.4365 20.6129 27.9979 19.8936C28.2785 20.3848 28.1031 21.297 28.9101 21.4374C30.4187 21.7005 32.173 20.5076 33.2606 20.1041C33.9272 18.9639 33.208 18.5604 32.594 17.8236C31.3485 16.3325 29.6995 14.473 29.7521 12.2451C30.2609 11.8767 30.2959 12.8064 30.3661 12.9643C31.0152 14.473 32.6466 16.4202 33.822 17.7183C34.1202 18.0341 34.5939 18.3499 34.6465 18.5604C34.8044 19.1568 34.243 19.8936 34.3132 20.2971Z"
          fill="#231F20"/>
    <path d="M12.9463 19.2092C12.4376 18.911 12.3148 17.6479 11.7183 17.6128C10.8588 17.5602 11.0166 19.2618 11.0166 20.2618C10.4377 19.7355 10.3325 18.0865 10.7535 17.2444C10.2623 16.9989 10.0518 17.5076 9.77112 17.683C10.1395 15.1393 13.5077 16.5077 12.9463 19.2092Z"
          fill="#231F20"/>
    <path d="M35.3308 21.3668C34.5764 22.8053 33.5063 24.3841 31.296 24.4368C31.2434 23.9807 31.2083 23.2614 31.296 22.9807C32.9976 22.8053 34.0502 21.9457 35.3308 21.3668Z"
          fill="#231F20"/>
    <path d="M24.735 22.2968C26.1384 23.0335 28.7347 23.1213 30.6644 23.0686C30.7696 23.4896 30.7696 24.0159 30.7696 24.5247C28.2961 24.6299 25.3841 24.0159 24.735 22.2968Z"
          fill="#231F20"/>
    <path d="M24.4718 23.6653C25.4542 26.1212 28.8048 25.8406 31.6292 25.7704C31.5064 26.0862 31.2432 26.4721 30.8924 26.5949C29.9802 26.9633 27.4891 27.244 26.2261 26.5773C25.4366 26.1563 24.9104 25.1915 24.4718 24.6301C24.2788 24.367 23.2263 23.6828 24.4718 23.6653Z"
          fill="#231F20"/>
    <path d="M34.1905 37.1907C33.0502 39.1555 31.945 41.1729 30.5942 42.892C31.1556 41.2255 31.4012 38.4187 31.4889 36.2785C32.6818 35.7171 33.6993 36.4013 34.1905 37.1907Z"
          fill="#81B0C4"/>
    <path d="M40.3479 44.2427C39.0673 44.5058 38.1726 45.7513 36.9095 45.6636C37.6112 44.6988 38.8041 44.2778 40.3479 44.2427Z"
          fill="#231F20"/>
    <path d="M40.9093 46.2422C39.8567 46.3475 38.6287 46.5229 37.5762 46.4352C38.0849 45.6633 40.0146 45.944 40.9093 46.2422Z"
          fill="#231F20"/>
    <path d="M41.2777 47.979C40.1023 47.9966 38.6463 47.979 37.5236 47.8913C38.1902 47.1721 40.5233 47.6282 41.2777 47.979Z"
          fill="#231F20"/>
    <path d="M31.98 52.7158C32.1555 54.1894 32.7344 55.6805 32.6642 57.2944C32.0151 57.5049 31.6467 57.6979 30.7696 57.6979C30.717 56.3296 30.524 54.2245 30.5766 52.9088C30.9977 52.9439 31.6292 52.6106 31.98 52.7158Z"
          fill="#DCD9D8"/>
    <path d="M30.0854 30.9629C29.489 31.3488 28.9978 31.8225 28.4189 32.2435C27.1558 32.3137 26.4717 32.1558 25.5594 31.4365C25.577 31.3839 25.6647 31.4015 25.6647 31.3313C27.0155 31.9277 28.7347 31.0857 30.0854 30.9629Z"
          fill="#F0D6B7"/>
    <path d="M23.0333 40.1377C23.4017 38.5413 24.8577 37.6993 26.1734 36.8221C27.5242 38.5413 28.3487 40.7517 29.2609 42.8919C27.1032 42.2428 24.9104 41.2078 23.0333 40.1377Z"
          fill="#81B0C4"/>
    <path d="M30.5767 52.9262C30.5241 54.2419 30.6995 56.3294 30.7697 57.7153C31.6468 57.7153 32.0152 57.5223 32.6643 57.3118C32.7345 55.6979 32.1556 54.2068 31.9801 52.7332C31.6293 52.6104 30.9978 52.9437 30.5767 52.9262ZM17.0339 45.4881C17.6128 50.7684 18.4373 55.1892 19.9635 59.873C23.3492 60.908 27.4191 60.9957 30.4188 60.066C29.875 57.4346 30.1031 54.2243 29.7873 51.4C29.5417 49.2773 29.6645 47.1547 29.3312 44.9969C25.6999 44.2426 20.5775 44.8215 17.0339 45.4881ZM30.1908 45.032C30.1557 47.295 30.296 49.5405 30.4715 51.8035C31.3486 51.6807 31.9275 51.5929 32.7345 51.4C32.4713 49.2247 32.5064 46.7512 31.9626 44.8215C31.3486 44.8391 30.8048 44.8215 30.1908 45.032ZM34.594 44.6636C34.173 44.5759 33.6993 44.6636 33.3134 44.6636C33.5063 46.5056 33.9449 48.5405 34.1028 50.4878C34.7168 50.5053 35.0501 50.2071 35.5588 50.1194C35.5939 48.4177 35.4185 46.067 34.594 44.6636ZM41.2777 50.7684C42.5758 50.4527 43.3828 48.8738 43.0144 47.2424C42.7688 46.1547 42.3478 44.0847 41.8741 43.383C41.5408 42.8743 40.6111 42.1901 39.8567 42.6638C38.6463 43.4357 36.5237 43.6637 35.6465 44.5935C36.0851 46.067 36.2254 48.0669 36.4009 49.9264C37.9095 50.0141 39.7515 49.5054 41.0145 50.0492C40.1374 50.3299 39.0147 50.3299 38.2604 50.7509C38.8919 51.0491 40.3304 50.9965 41.2777 50.7684ZM29.2435 42.8918C28.3313 40.7516 27.5068 38.5413 26.156 36.8221C24.8403 37.6992 23.4018 38.5413 23.0159 40.1377C24.9105 41.2077 27.1033 42.2428 29.2435 42.8918ZM31.4889 36.2783C31.4012 38.4185 31.1556 41.2253 30.5943 42.8918C31.945 41.1551 33.0502 39.1553 34.1905 37.1905C33.6993 36.4011 32.6818 35.7169 31.4889 36.2783ZM28.9453 35.3836C28.4365 35.331 27.998 35.9801 27.3314 35.6994C27.1735 35.8748 27.0331 36.0502 26.8753 36.2257C28.3488 38.015 29.033 40.5411 30.1733 42.6287C30.7872 40.6113 30.7171 38.4185 30.8574 36.2257C30.0154 36.2607 29.5417 35.4363 28.9453 35.3836ZM27.3138 33.2259C27.2612 33.8399 27.4015 34.0328 27.5243 34.7345C29.5242 35.3661 29.1909 31.9804 27.3138 33.2259ZM25.0859 32.4891C24.2263 32.0155 22.9282 31.5067 21.8055 31.2962C20.4196 31.0331 20.5599 33.1908 20.6126 34.4714C20.6652 35.4889 21.1915 36.559 21.4195 37.2431C21.5248 37.5589 21.5599 37.8922 21.823 37.9624C22.2966 38.0676 23.8755 37.4536 24.314 37.208C25.2613 36.6993 25.9981 35.8748 26.8051 35.3135C26.8226 35.0503 26.8226 34.7696 26.8402 34.5065C26.349 34.2609 25.8052 34.103 25.0859 34.0679C25.5596 33.8223 26.2788 33.8223 26.7174 33.5417C26.7174 33.4364 26.7174 33.3311 26.7349 33.2259C25.928 33.1382 25.6297 32.7873 25.0859 32.4891ZM16.8409 30.998C16.1217 31.7348 18.8583 32.7172 19.7179 32.7698C19.7179 32.3137 19.981 31.8751 19.9284 31.5418C18.8934 31.3664 17.5426 31.4892 16.8409 30.998ZM25.6824 31.3313C25.6824 31.4015 25.5946 31.3839 25.5771 31.4365C26.5069 32.1558 27.191 32.3137 28.4365 32.2435C28.9979 31.84 29.5066 31.3488 30.1031 30.9629C28.7348 31.0857 27.0156 31.9277 25.6824 31.3313ZM33.787 33.7873C33.7519 32.9803 33.5414 31.3137 33.0327 31.0155C31.9801 30.4015 30.1206 32.2611 29.3312 32.5417C29.4189 32.7873 29.5593 32.9803 29.5768 33.2961C30.0505 33.1733 30.6118 33.261 31.0153 33.4539C30.5416 33.5066 30.0329 33.5066 29.7171 33.7346C29.6119 34.0679 29.7522 34.5065 29.6645 34.9626C30.7697 35.2784 32.0503 35.4362 33.4537 35.4889C33.7168 35.138 33.8221 34.4714 33.787 33.7873ZM15.6305 31.6997C15.4024 31.5418 13.8762 29.5595 13.6657 29.6472C10.9115 30.7348 8.33278 32.6119 6.0347 34.4012C8.22752 39.1202 9.12219 44.8917 9.28007 50.4527C11.7887 51.628 13.999 53.3297 17.4198 53.5051C17.0163 50.7158 16.6655 48.2072 16.4374 45.5758C15.5779 45.2075 14.3499 45.5934 13.5429 45.4706C13.5429 44.5057 14.7709 45.0496 14.8761 44.4005C14.9463 43.9093 14.192 43.8742 14.4376 43.1023C15.0691 43.3304 15.4024 43.8391 16.069 44.0321C16.683 42.6989 16.069 40.3306 16.1568 39.2079C16.1743 38.9974 16.262 38.0501 16.7357 38.208C17.1567 38.3483 16.7181 40.7516 16.7532 41.8042C16.7883 42.7866 16.6304 43.7163 17.0339 44.3303C20.3319 43.8742 23.6825 43.5935 27.2612 43.4883C26.4718 43.155 25.542 42.8392 24.5245 42.2603C23.9632 41.9445 22.2265 41.2955 22.0686 40.7692C21.8055 39.9271 22.7352 39.4886 22.8931 38.7693C21.2266 39.6815 20.9108 37.8922 20.5073 36.6467C20.1565 35.5064 19.9459 34.6468 19.8582 33.9978C18.4022 33.261 16.8585 32.5768 15.6305 31.6997ZM32.331 29.8753C34.6291 28.7701 35.0501 34.0328 34.1379 35.7345C34.2782 36.2432 34.7519 36.4362 34.9448 36.8923C33.6642 39.1904 32.2433 41.3305 30.9276 43.5935C31.8924 42.9795 33.2958 43.4883 34.4361 43.0322C34.8571 42.8743 35.1553 41.9095 35.4711 41.1376C36.3482 39.0325 37.2604 36.366 37.6639 34.3662C37.7516 33.91 38.0148 32.9101 37.9446 32.5066C37.8393 31.7699 36.857 31.226 36.3482 30.7875C35.4185 29.9454 34.8396 29.2262 33.8572 28.4368C33.4888 29.0157 32.6468 29.4016 32.331 29.8753ZM10.3853 9.50836C9.29762 10.7188 9.52567 12.9642 9.64847 14.5782C11.6308 13.3326 14.2446 14.6834 14.2271 16.7885C15.1744 16.771 14.5779 15.6132 14.4025 14.8588C13.8411 12.4204 15.3498 9.78904 14.4727 7.56114C12.771 7.70148 11.3852 8.38564 10.3853 9.50836ZM18.2092 2.50888C15.7357 3.21058 12.5605 5.01747 11.5431 7.24537C12.3325 7.12257 12.8763 6.73664 13.6482 6.68401C13.9464 6.66647 14.3323 6.80681 14.6656 6.71909C15.3323 6.54367 15.9112 5.03501 16.4199 4.47365C16.9111 3.92983 17.5075 3.68423 17.911 3.19304C18.1741 3.07024 18.5601 3.07024 18.5776 2.68431C18.4724 2.56151 18.3496 2.4738 18.2092 2.50888ZM31.103 3.1755C28.5243 1.71947 24.1737 0.631829 21.4371 2.00015C19.2267 3.10533 16.2445 4.92975 15.227 7.22783C16.1743 9.45573 14.9463 11.4907 14.8586 13.7537C14.8235 14.9641 15.42 15.9991 15.4726 17.3148C15.1393 17.8586 14.1569 17.9112 13.4727 17.8762C13.2447 16.7183 12.8412 15.4202 11.6483 15.2799C9.96423 15.0869 8.71871 16.4903 8.64854 17.9463C8.56083 19.6655 9.96423 22.5074 11.9641 22.3144C12.736 22.2443 12.9289 21.4724 13.771 21.4724C14.2271 22.3846 13.0693 22.6653 12.9465 23.3143C12.9114 23.4898 13.0342 24.1388 13.1219 24.4546C13.4903 25.9457 14.2972 27.893 15.0867 29.0332C16.1041 30.4893 18.0864 30.6998 20.2266 30.8401C20.6126 30.0156 22.016 30.0858 22.9282 30.2963C21.823 29.8577 20.8055 28.8052 19.9635 27.8754C18.9986 26.8053 18.0163 25.665 17.9636 24.2616C19.8056 26.8053 21.3143 29.0332 24.6474 30.1559C27.1735 30.998 30.1206 29.77 32.0678 28.4017C32.8748 27.8403 33.3485 26.9281 33.9274 26.1212C36.0675 23.0337 37.0675 18.648 36.857 14.3852C36.7692 12.6309 36.7692 10.8767 36.1728 9.70133C35.5588 8.47335 33.4713 7.35063 32.2433 8.47335C32.0152 7.26291 33.2607 6.52613 34.7168 6.96469C33.6818 5.61391 32.5941 4.01754 31.103 3.1755ZM35.9097 42.8392C37.9271 41.8393 41.6812 40.1552 42.9267 42.8392C43.4003 43.8391 43.9442 45.5057 44.1722 46.5407C44.5055 47.9792 43.8038 51.0316 42.3127 51.5052C40.997 51.9262 39.4708 51.9087 37.892 51.5929C37.699 51.4351 37.506 51.1719 37.3482 50.8912C36.2254 50.8562 35.1553 50.9439 34.2782 51.4175C34.3659 52.2596 33.8046 52.3824 33.2607 52.5578C32.8748 54.1191 34.0502 56.154 33.7695 57.5574C33.5765 58.5749 32.331 58.7328 31.4188 58.9082C31.3837 59.4695 31.4539 59.9432 31.524 60.4168C31.3135 61.1887 30.3838 61.6273 29.4891 61.7325C26.5595 62.0834 22.1212 62.2413 19.3144 61.2238C18.525 59.2941 17.911 56.961 17.2619 54.7681C14.5253 55.0664 12.2974 53.5928 10.2098 52.6104C9.49058 52.2771 8.49066 52.0841 8.20998 51.5052C7.94684 50.9439 8.0521 49.8738 7.98193 48.8738C7.82404 46.2951 7.66616 43.804 6.99954 41.1727C6.70132 39.9798 6.1575 38.9448 5.78911 37.8045C5.43826 36.7519 4.84181 35.4362 4.68393 34.3837C4.45587 32.8224 5.92945 32.7347 6.8592 32.0505C8.31523 30.998 9.4555 30.4191 11.0343 29.4718C11.508 29.1911 12.9114 28.4894 13.0693 28.1561C13.385 27.507 12.5254 26.5948 12.2974 26.0861C11.929 25.2791 11.736 24.595 11.6834 23.8055C10.3677 23.595 9.35024 22.8056 8.7538 21.9285C7.75387 20.4549 7.05217 17.7358 7.9293 15.6833C7.99947 15.5255 8.33278 15.1921 8.3854 14.9466C8.49066 14.4554 8.19244 13.8063 8.17489 13.28C8.08718 10.596 8.631 8.28038 10.4379 7.47342C11.1747 4.54382 13.8061 3.57898 16.2796 2.12295C17.2093 1.57913 18.2268 1.22828 19.2793 0.842339C23.051 -0.543522 28.8576 -0.280384 31.9977 2.08786C33.3309 3.08779 35.4536 5.21043 36.2079 6.75418C38.2253 10.8065 38.0674 17.5955 36.664 22.5425C36.471 23.2091 36.2079 24.1739 35.822 24.9809C35.5588 25.5423 34.7343 26.6474 34.822 27.1386C34.9273 27.6474 36.7166 28.9981 37.1026 29.3665C37.7867 30.0331 39.1024 30.9103 39.2077 31.7523C39.3305 32.647 38.8217 33.875 38.5586 34.7345C37.7165 37.6115 36.8745 40.2605 35.9097 42.8392Z"
          fill="#231F20"/>
    <path d="M22.4896 22.9108C22.5948 22.7704 23.1913 22.5424 24.0333 22.9458C24.0333 22.9458 23.0334 23.1037 23.1211 24.7703L22.7001 24.6826C22.7176 24.7001 22.279 23.1914 22.4896 22.9108Z"
          fill="#F7E4CD"/>
    <path d="M29.7522 37.1556C29.7522 37.4012 29.5417 37.6117 29.2961 37.6117C29.0505 37.6117 28.84 37.4012 28.84 37.1556C28.84 36.91 29.0505 36.6995 29.2961 36.6995C29.5592 36.6995 29.7522 36.91 29.7522 37.1556Z"
          fill="#1D1919"/>
    <path d="M30.2082 39.2781C30.2082 39.5237 29.9977 39.7342 29.7521 39.7342C29.5065 39.7342 29.296 39.5237 29.296 39.2781C29.296 39.0325 29.5065 38.822 29.7521 38.822C30.0153 38.822 30.2082 39.015 30.2082 39.2781Z"
          fill="#1D1919"/>
</svg>