<svg width="41" height="41" viewBox="0 0 41 41" fill="none" xmlns="http://www.w3.org/2000/svg">
    <g clip-path="url(#clip0_162_969)">
        <path d="M40.2247 24.5512C39.9863 23.8293 39.3619 23.3265 38.5542 23.2057C38.1734 23.1489 37.7373 23.1731 37.2213 23.2795C36.3218 23.4651 35.6545 23.5357 35.1675 23.5495C37.0057 20.4457 38.5005 16.9063 39.361 13.5746C40.7525 8.18736 40.0089 5.73313 39.14 4.62295C36.8405 1.68474 33.4855 0.106194 29.4379 0.0578057C27.2789 0.0314537 25.3833 0.457769 24.3946 0.76426C23.4739 0.601924 22.4839 0.511207 21.4451 0.494405C19.4983 0.46337 17.778 0.887757 16.3081 1.76004C15.4941 1.48495 14.1882 1.09701 12.6798 0.849376C9.13233 0.266969 6.27327 0.72083 4.18201 2.1982C1.64964 3.98701 0.475645 7.0949 0.692796 11.4356C0.76166 12.8138 1.53266 17.0069 2.74651 20.9837C3.44415 23.2693 4.18807 25.1675 4.9576 26.6258C6.04887 28.6936 7.21653 29.9114 8.52743 30.3487C9.26225 30.5936 10.5972 30.7649 12.0014 29.5957C12.1793 29.8111 12.4167 30.0253 12.7319 30.2242C13.132 30.4766 13.6214 30.6828 14.1101 30.805C15.8715 31.2454 17.5213 31.1352 18.9288 30.5181C18.9374 30.7684 18.9441 31.0076 18.9498 31.2141C18.9592 31.5491 18.9683 31.8775 18.9806 32.1847C19.064 34.2618 19.2053 35.8768 19.624 37.0067C19.647 37.069 19.6779 37.1637 19.7106 37.264C19.9194 37.9036 20.2688 38.9742 21.1573 39.8128C22.0776 40.6813 23.1906 40.9478 24.21 40.9477C24.7212 40.9477 25.2091 40.8807 25.6369 40.7889C27.1621 40.4622 28.8941 39.9641 30.1471 38.1801C31.3317 36.4935 31.9075 33.9532 32.0118 29.9505C32.0253 29.8373 32.0377 29.7293 32.0498 29.6262C32.0578 29.5567 32.0661 29.4857 32.0745 29.4148L32.3536 29.4393L32.4255 29.4442C33.9789 29.515 35.8782 29.1855 37.0447 28.6437C37.9665 28.2159 40.9201 26.6566 40.2247 24.5512Z"
              fill="black"/>
        <path d="M37.5687 24.9607C32.95 25.9134 32.6325 24.3496 32.6325 24.3496C37.5091 17.1136 39.5476 7.92847 37.7884 5.68047C32.989 -0.451653 24.6811 2.44845 24.5424 2.52374L24.4978 2.53173C23.5853 2.3423 22.5641 2.22946 21.4163 2.21073C19.3265 2.17648 17.7412 2.75861 16.5383 3.67083C16.5383 3.67083 1.7177 -2.43466 2.40699 11.3496C2.55362 14.2822 6.61009 33.5383 11.4485 27.722C13.2169 25.5952 14.9256 23.797 14.9256 23.797C15.7743 24.3607 16.7902 24.6483 17.8553 24.545L17.9381 24.4748C17.9123 24.7389 17.9241 24.9971 17.9712 25.3029C16.7248 26.6955 17.091 26.94 14.5993 27.4529C12.0781 27.9725 13.5592 28.8976 14.5263 29.1394C15.6986 29.4325 18.4108 29.8478 20.2434 27.2824L20.1704 27.5751C20.6587 27.9663 21.0017 30.1195 20.9442 32.0714C20.8867 34.0234 20.8483 35.3635 21.2332 36.4102C21.618 37.457 22.0015 39.8121 25.277 39.1103C28.0141 38.5237 29.4324 37.0037 29.6297 34.4683C29.7697 32.6659 30.0866 32.9323 30.1066 31.3208L30.3608 30.5579C30.6539 28.1145 30.4073 27.3262 32.0936 27.6929L32.5034 27.7288C33.7445 27.7853 35.3689 27.5292 36.3222 27.0861C38.3751 26.1334 39.5926 24.5427 37.5685 24.9607H37.5687Z"
              fill="#336791"/>
        <path d="M17.4057 12.6611C16.9896 12.6032 16.6126 12.6568 16.4219 12.8012C16.3146 12.8824 16.2814 12.9765 16.2725 13.0414C16.2485 13.213 16.3688 13.4027 16.4427 13.5005C16.6516 13.7776 16.957 13.968 17.2593 14.0099C17.3031 14.016 17.3466 14.0189 17.3899 14.0189C17.894 14.0189 18.3522 13.6265 18.3926 13.3368C18.4431 12.974 17.9164 12.7322 17.4057 12.6611Z"
              fill="white"/>
        <path d="M31.1942 12.6726C31.1545 12.3883 30.6483 12.3072 30.1681 12.3739C29.6886 12.4408 29.2236 12.6572 29.2624 12.9422C29.2936 13.1639 29.6937 13.5422 30.1675 13.5421C30.2074 13.5421 30.2478 13.5395 30.2885 13.5338C30.6047 13.49 30.8367 13.2892 30.9469 13.1734C31.1149 12.9971 31.2119 12.8004 31.1942 12.6726Z"
              fill="white"/>
        <path d="M39.1056 24.8525C38.9295 24.32 38.3627 24.1486 37.4209 24.3431C34.6246 24.9202 33.6233 24.5204 33.2944 24.2783C35.4679 20.9671 37.2559 16.9648 38.2204 13.2305C38.6774 11.4616 38.9298 9.81884 38.9504 8.47994C38.9732 7.0101 38.723 5.93022 38.2067 5.2705C36.1252 2.61087 33.0705 1.18428 29.3727 1.14508C26.8306 1.11652 24.6828 1.76715 24.2664 1.95005C23.3895 1.73198 22.4336 1.59811 21.393 1.58103C19.4845 1.55018 17.835 2.00707 16.4692 2.9383C15.8759 2.71757 14.3428 2.19126 12.4679 1.88927C9.22633 1.36728 6.65054 1.76274 4.81232 3.06501C2.61895 4.61895 1.60637 7.39666 1.80259 11.3208C1.86861 12.6412 2.62079 16.7026 3.80801 20.5922C5.37067 25.7116 7.06923 28.6098 8.85658 29.2058C9.06574 29.2756 9.30704 29.3245 9.57295 29.3245C10.225 29.3245 11.0242 29.0306 11.8559 28.0307C13.2373 26.3688 14.5271 24.9762 15.0026 24.4702C15.7052 24.8474 16.4769 25.0579 17.2665 25.079C17.2678 25.0997 17.2699 25.1204 17.2718 25.1409C17.1134 25.3288 16.9835 25.4934 16.8727 25.634C16.3258 26.3283 16.2119 26.4729 14.4512 26.8354C13.9504 26.9387 12.62 27.2129 12.6007 28.1453C12.5795 29.1641 14.173 29.5919 14.3546 29.6373C14.9873 29.7957 15.5968 29.8738 16.1781 29.8738C17.5919 29.8737 18.836 29.4091 19.8303 28.5101C19.7996 32.142 19.9511 35.7209 20.3872 36.8113C20.7443 37.7039 21.6168 39.8855 24.373 39.8853C24.7772 39.8853 25.2225 39.8383 25.7121 39.7333C28.5885 39.1166 29.8375 37.8454 30.3207 35.0427C30.5793 33.5448 31.023 29.9679 31.2316 28.0494C31.6721 28.1867 32.2392 28.2496 32.8522 28.2495C34.1306 28.2495 35.6058 27.9779 36.531 27.5485C37.5702 27.0659 39.4457 25.8814 39.1056 24.8525ZM32.2558 11.8877C32.2462 12.4541 32.1683 12.9683 32.0857 13.5051C31.9968 14.0824 31.9048 14.6792 31.8816 15.4037C31.8588 16.1088 31.9468 16.8419 32.032 17.5507C32.2041 18.9825 32.3807 20.4567 31.6971 21.9113C31.5908 21.7226 31.4883 21.5167 31.3943 21.2888C31.3093 21.0828 31.1249 20.752 30.8695 20.2941C29.8757 18.5119 27.5484 14.3383 28.7398 12.6353C29.0946 12.1283 29.9951 11.6072 32.2558 11.8877ZM29.5156 2.29208C32.8288 2.36526 35.4496 3.60472 37.3053 5.97585C38.7285 7.7946 37.1613 16.0702 32.6244 23.2096C32.5796 23.1527 32.534 23.0952 32.4868 23.0363C32.468 23.0127 32.4488 22.9887 32.4294 22.9645C33.6018 21.0283 33.3725 19.1127 33.1685 17.4142C33.0846 16.7172 33.0055 16.0588 33.0256 15.4405C33.0464 14.785 33.1331 14.2229 33.2169 13.6794C33.32 13.0095 33.4247 12.3164 33.3958 11.4993C33.4174 11.4136 33.4261 11.3124 33.4148 11.1922C33.341 10.4086 32.4465 8.06381 30.6232 5.94124C29.6259 4.78046 28.1714 3.48132 26.1856 2.60509C27.0397 2.42806 28.2079 2.26297 29.5156 2.29208ZM10.9758 27.2989C10.0596 28.4006 9.42677 28.1895 9.21871 28.1202C7.86282 27.6679 6.28969 24.8023 4.90267 20.2581C3.70251 16.3261 3.0011 12.3723 2.94564 11.2636C2.77036 7.75723 3.62033 5.31347 5.47204 4.00028C8.48554 1.86319 13.4401 3.14232 15.4309 3.79111C15.4023 3.8193 15.3725 3.84574 15.3441 3.87439C12.0773 7.17372 12.1548 12.8107 12.1628 13.1552C12.1625 13.2881 12.1736 13.4764 12.189 13.7353C12.2452 14.6833 12.3497 16.4479 12.0703 18.4462C11.8106 20.3032 12.383 22.1207 13.6405 23.4328C13.7707 23.5686 13.9066 23.6962 14.047 23.8162C13.4872 24.4157 12.2707 25.7412 10.9758 27.2989ZM14.4669 22.6409C13.4533 21.5834 12.993 20.1124 13.2038 18.6047C13.4989 16.4937 13.3899 14.6552 13.3315 13.6675C13.3233 13.5293 13.316 13.4082 13.3117 13.3126C13.789 12.8895 16.0006 11.7044 17.5778 12.0658C18.2977 12.2307 18.7361 12.7208 18.9185 13.5639C19.8622 17.9283 19.0434 19.7474 18.3855 21.2092C18.2499 21.5103 18.1218 21.795 18.0124 22.0895L17.9276 22.3171C17.713 22.8927 17.5133 23.4279 17.3895 23.9361C16.3121 23.9328 15.2639 23.4726 14.4669 22.6409ZM14.6323 28.5269C14.3177 28.4483 14.0347 28.3118 13.8687 28.1986C14.0073 28.1333 14.2541 28.0446 14.6821 27.9565C16.7535 27.53 17.0733 27.2291 17.7718 26.3421C17.932 26.1388 18.1136 25.9083 18.365 25.6275L18.3652 25.6271C18.7398 25.2079 18.911 25.2789 19.2216 25.4078C19.4734 25.512 19.7186 25.8275 19.818 26.1747C19.865 26.3387 19.9179 26.6501 19.745 26.8922C18.2857 28.9353 16.1594 28.9091 14.6323 28.5269ZM25.4722 38.6142C22.9383 39.1572 22.0411 37.8643 21.4499 36.3863C21.0683 35.432 20.8808 31.1291 21.0139 26.3774C21.0156 26.3141 21.0066 26.253 20.9892 26.1957C20.974 26.0848 20.9507 25.9727 20.9184 25.8599C20.7204 25.1685 20.2383 24.5901 19.6598 24.3504C19.43 24.2552 19.0081 24.0804 18.5011 24.2101C18.6093 23.7647 18.7968 23.2618 19 22.7171L19.0853 22.4879C19.1813 22.2296 19.3017 21.9621 19.4292 21.6789C20.1176 20.1494 21.0605 18.0545 20.0372 13.3219C19.6538 11.5493 18.3739 10.6838 16.4335 10.8848C15.2701 11.0051 14.2059 11.4745 13.6751 11.7436C13.561 11.8015 13.4566 11.8573 13.3591 11.9118C13.5072 10.1257 14.067 6.78799 16.1609 4.67625C17.4791 3.34671 19.2349 2.69011 21.3741 2.72546C25.589 2.79451 28.2919 4.95758 29.8173 6.76008C31.1317 8.31338 31.8434 9.87797 32.1275 10.7218C29.9914 10.5046 28.5385 10.9264 27.8019 11.9792C26.1997 14.2696 28.6785 18.7151 29.8699 20.8515C30.0883 21.2431 30.2769 21.5815 30.3362 21.7253C30.7242 22.6655 31.2264 23.2932 31.5931 23.7514C31.7055 23.8918 31.8146 24.028 31.8975 24.1469C31.2506 24.3335 30.0884 24.7644 30.1943 26.9185C30.1089 27.9995 29.5014 33.0602 29.1929 34.8482C28.7856 37.2103 27.9163 38.0902 25.4722 38.6142ZM36.049 26.5104C35.3875 26.8175 34.2803 27.0479 33.2285 27.0973C32.0668 27.1518 31.4755 26.9672 31.3364 26.8537C31.271 25.5113 31.7708 25.371 32.2996 25.2226C32.3827 25.1991 32.4638 25.1765 32.542 25.1491C32.5907 25.1887 32.6439 25.228 32.7022 25.2664C33.6359 25.8827 35.3013 25.9492 37.6524 25.4639C37.661 25.4621 37.6696 25.4605 37.6782 25.4587C37.3611 25.7552 36.8185 26.1531 36.049 26.5104Z"
              fill="white"/>
    </g>
    <defs>
        <clipPath id="clip0_162_969">
            <rect width="41" height="41" fill="white"/>
        </clipPath>
    </defs>
</svg>