<svg width="29" height="29" viewBox="0 0 29 29" fill="none" xmlns="http://www.w3.org/2000/svg">
    <path d="M26.2162 7.65208C24.9598 5.49933 23.2555 3.795 21.1029 2.53869C18.95 1.28232 16.5997 0.654297 14.0504 0.654297C11.5013 0.654297 9.15021 1.28251 6.99778 2.53869C4.84503 3.79493 3.14083 5.49933 1.88439 7.65208C0.628153 9.80477 0 12.1555 0 14.7043C0 17.7659 0.893241 20.519 2.68017 22.9643C4.46691 25.4097 6.77512 27.1019 9.60459 28.0409C9.93395 28.1021 10.1778 28.0591 10.3363 27.913C10.4949 27.7668 10.5741 27.5837 10.5741 27.3644C10.5741 27.3278 10.5709 26.9986 10.5649 26.3765C10.5604 25.9364 10.5576 25.5361 10.5564 25.1755C10.5556 24.9525 10.3546 24.7833 10.1348 24.8213V24.8213C9.86654 24.8705 9.52808 24.8913 9.11946 24.8854C8.71103 24.8797 8.28703 24.8369 7.84803 24.7573C7.40884 24.6785 7.00035 24.4955 6.62223 24.2089C6.2443 23.9223 5.976 23.5471 5.81741 23.0839L5.63447 22.663C5.51253 22.3827 5.32055 22.0713 5.05828 21.7301C4.84149 21.4477 4.62269 21.2405 4.40179 21.1083C4.3119 21.0544 4.2196 21.0042 4.13441 20.9432V20.9432C4.04906 20.8823 3.96986 20.8088 3.89662 20.7235C3.82345 20.6382 3.76866 20.5529 3.73207 20.4674C3.69542 20.3819 3.72579 20.3117 3.82351 20.2567C3.86403 20.2338 3.9181 20.2159 3.9858 20.2027C4.22745 20.1556 4.47633 20.1932 4.71983 20.2295V20.2295C4.96377 20.2784 5.26551 20.4245 5.62543 20.6685C5.98517 20.9124 6.28088 21.2295 6.51265 21.6196C6.79331 22.1198 7.13145 22.5009 7.52803 22.7632C7.92428 23.0254 8.32381 23.1564 8.72621 23.1564C9.12862 23.1564 9.47618 23.1259 9.76901 23.0652C9.92029 23.0336 10.0667 22.9939 10.2083 22.946C10.4532 22.8631 10.6158 22.5864 10.6777 22.3354V22.3354C10.836 21.6925 10.4391 20.7791 9.79573 20.6229C9.73413 20.6079 9.67334 20.5925 9.61337 20.5767C9.05858 20.4302 8.48528 20.1925 7.89385 19.8629C7.30209 19.5337 6.81119 19.125 6.42102 18.6373C6.03079 18.1495 5.71053 17.5089 5.46069 16.7164C5.21072 15.9235 5.08571 15.0088 5.08571 13.9722C5.08571 13.2835 5.19062 12.6427 5.40041 12.0497C5.84399 10.7959 6.12095 9.48485 6.24208 8.16041V8.16041C6.33527 7.14135 7.28056 6.3427 8.23243 6.71834V6.71834C8.92767 6.99279 9.43671 7.22789 9.76004 7.42281V7.42281C10.2602 7.72422 10.8609 7.81719 11.4331 7.70095C12.2856 7.52779 13.1579 7.4412 14.0502 7.4412C14.9765 7.4412 15.8814 7.53451 16.7648 7.72109C17.2769 7.82925 17.8157 7.75728 18.2583 7.47785V7.47785C18.7337 7.18502 19.2951 6.91666 19.9411 6.67272V6.67272C20.8426 6.33272 21.6903 6.98144 21.8257 7.9353C21.8307 7.97077 21.8353 8.00615 21.8396 8.04142C22.001 9.37545 22.265 10.8025 22.7077 12.0712C22.9126 12.6583 23.0151 13.292 23.0151 13.9724C23.0151 15.009 22.8896 15.9265 22.64 16.7255C22.3901 17.5246 22.0671 18.1645 21.6708 18.6465C21.2741 19.1284 20.7801 19.534 20.1887 19.8631C19.5971 20.1924 19.0236 20.4302 18.4688 20.5767V20.5767C17.7696 20.7612 17.3353 21.8476 17.4655 22.5589C17.5183 22.8475 17.5448 23.1626 17.5448 23.504V27.3639C17.5448 27.5832 17.621 27.7662 17.7736 27.9125C17.9261 28.0585 18.1668 28.1015 18.4962 28.0403C21.326 27.1014 23.6342 25.4092 25.4209 22.9637C27.2074 20.5185 28.101 17.7654 28.101 14.7038C28.1003 12.1553 27.4719 9.80477 26.2162 7.65208Z"
          fill="#B8C0FF"/>
</svg>