<svg width="132" height="69" viewBox="0 0 132 69" fill="none" xmlns="http://www.w3.org/2000/svg">
    <path fill-rule="evenodd" clip-rule="evenodd"
          d="M120.592 34.6957L120.365 34.2138L115.407 24.8152C115.321 24.7003 115.281 24.5571 115.297 24.4145C115.312 24.2718 115.381 24.1402 115.489 24.046L123.331 14.8315C123.438 14.7154 123.51 14.5719 123.54 14.417L121.251 15.0156L111.744 17.5598C111.45 17.6391 111.315 17.5523 111.168 17.3084L105.749 8.28548C105.655 8.10951 105.52 7.95901 105.355 7.84698L104.907 10.249L103.399 18.7346L103.244 19.652C103.218 19.9439 103.069 20.0516 102.805 20.1354L91.6079 23.6748C91.4582 23.7272 91.2846 23.7946 91.108 23.9532L100.312 27.6109L100.043 27.8234L94.3182 31.5289C94.0907 31.6786 93.9096 31.698 93.6537 31.5828L86.8024 28.5298C85.7772 28.0718 84.8568 27.4642 84.1384 26.5842C82.5146 24.5982 82.8364 22.3399 84.999 20.96C85.7229 20.5144 86.4996 20.161 87.3112 19.9079L98.3111 16.4134C98.6179 16.3176 98.7601 16.1799 98.8199 15.8447L100.325 7.35909C100.598 5.86251 100.745 4.29708 101.478 2.91125C101.777 2.37846 102.099 1.85765 102.502 1.41017C103.958 -0.206134 105.992 -0.268991 107.53 1.27099C108.049 1.79031 108.497 2.40391 108.883 3.03397L113.911 11.3744C113.937 11.4445 113.978 11.5084 114.03 11.5621C114.082 11.6158 114.144 11.658 114.214 11.6862C114.283 11.7143 114.357 11.7278 114.432 11.7256C114.507 11.7235 114.58 11.7058 114.648 11.6737L126.92 8.41418C127.765 8.18969 128.62 8.10888 129.486 8.27201C131.375 8.6252 132.2 10.0634 131.561 11.8863C131.27 12.7169 130.767 13.4188 130.205 14.0817L121.658 24.1792C121.423 24.4531 121.418 24.6521 121.58 24.9574L126.689 34.6448C127.096 35.4185 127.408 36.2207 127.417 37.1082C127.438 39.1285 125.96 40.7793 123.954 41.0741C122.831 41.2238 121.783 40.9993 120.733 40.6745L113.025 38.3279C112.924 38.313 112.83 38.2624 112.762 38.1851C112.694 38.1077 112.656 38.0088 112.654 37.9058L111.723 32.4822C111.714 32.4328 111.729 32.3775 111.738 32.2682L120.591 34.7106"
          fill="#E25A1C"/>
    <path fill-rule="evenodd" clip-rule="evenodd"
          d="M115.589 61.0549L108.645 61.049C108.515 61.0603 108.384 61.0333 108.268 60.9714C108.153 60.9094 108.058 60.8152 107.996 60.7003L99.4171 47.7099L97.6661 61.0205H91.605L91.8145 59.2905L95.3015 32.801C95.3221 32.6586 95.3972 32.5297 95.5111 32.4418L101.797 28.401C101.827 28.3816 101.872 28.3786 101.976 28.3486L100.086 42.7547L100.161 42.8056L110.08 31.8102L111.056 37.4434C111.107 37.7187 111.034 37.8923 110.85 38.0824L104.495 44.7602L104.196 45.0595L104.39 45.3678L115.345 60.7377C115.411 60.8305 115.507 60.8873 115.589 60.9861V61.0669M43.7532 47.7503C43.6605 47.2774 43.5946 46.583 43.3851 45.9365C42.3704 42.8056 39.1572 41.0875 35.8318 41.8613C32.1832 42.7098 29.5761 45.5788 29.199 49.2993C28.9191 52.053 30.4022 54.7064 33.1604 55.7017C35.3814 56.5038 37.52 56.1686 39.5059 54.9773C42.1399 53.3984 43.5662 51.0533 43.7562 47.7488L43.7532 47.7503ZM27.7323 59.3743L27.213 63.2624L26.5575 68.3298C26.5321 68.5274 26.4722 68.6292 26.2612 68.6292L21.2671 68.6217C21.2297 68.6217 21.1923 68.6007 21.1174 68.5768L21.4212 66.1822L22.5287 57.7789L23.8382 48.1769C24.805 42.5422 29.5851 37.7008 35.1943 36.4781C38.4464 35.7747 41.5578 36.1009 44.3983 37.9298C47.2298 39.7556 48.8536 42.4195 49.2233 45.7344C49.7471 50.4442 48.014 54.3547 44.6677 57.5874C42.4722 59.7125 39.8427 61.0594 36.8106 61.5159C33.6872 61.9873 30.7494 61.4665 28.1304 59.6242C28.0331 59.5569 27.9299 59.4985 27.7638 59.3937"
          fill="#3C3A3E"/>
    <path fill-rule="evenodd" clip-rule="evenodd"
          d="M25.0175 32.5989L19.543 36.6741L18.6854 35.3301C17.9012 34.2346 16.927 33.4145 15.5127 33.3157C14.9575 33.2629 14.3976 33.3418 13.8786 33.5459C13.3596 33.75 12.896 34.0737 12.5255 34.4905C11.8071 35.2688 11.7144 36.3718 12.3848 37.2487C13.1226 38.214 13.9308 39.1315 14.7554 40.0249L18.9099 44.4219C20.1461 45.7778 21.1309 47.2983 21.4347 49.1511C21.7968 51.354 21.3568 53.4522 20.3152 55.3888C18.3697 58.9716 15.3496 61.0519 11.3402 61.7014C9.56976 61.9888 7.80379 61.9319 6.07524 61.4231C3.78247 60.7496 2.18412 59.2455 1.16046 57.1234C0.798287 56.3751 0.519922 55.5819 0.190674 54.7767L6.12762 51.5995L6.30721 52.0305C6.64394 52.704 6.90584 53.4223 7.35482 54.0449C8.59399 55.8857 10.5964 56.4484 12.6273 55.537C13.1558 55.2974 13.6452 54.9796 14.079 54.5941C15.387 53.4328 15.6324 51.815 14.6776 50.3528C14.1209 49.5147 13.425 48.7605 12.732 48.0077L7.8457 42.62C6.75319 41.3584 6.01388 39.8857 5.78041 38.1961C5.52599 36.3508 5.89265 34.6088 6.85346 33.0553C9.24051 29.1941 12.7111 27.1842 17.2996 27.3503C19.9156 27.4446 21.9989 28.6673 23.6152 30.7027L25.0324 32.5809M69.3493 53.3325L68.4588 60.0791C68.4438 60.1914 68.354 60.3425 68.2597 60.3874C63.7431 62.4796 57.7941 62.1878 54.0841 57.9749C52.0907 55.7121 51.2406 53.0257 51.3798 50.037C51.6686 43.1183 57.405 37.0796 64.2504 36.2356C68.2583 35.7417 71.7722 36.8252 74.487 39.9381C76.3368 42.0588 77.1914 44.5775 77.0656 47.3866C76.9818 49.2334 76.6915 51.0712 76.4625 52.924L75.4374 60.7271C75.4254 60.8199 75.4074 60.9112 75.385 61.0265H69.9973L70.2113 59.2605L71.3756 50.2481C71.5896 48.3743 71.455 46.5141 70.5974 44.7781C69.6995 42.9328 68.158 41.957 66.1466 41.7445C61.9861 41.3045 58.0261 44.1959 57.1371 48.2905C56.5505 50.9934 57.4754 53.5854 59.6275 55.0177C61.7257 56.414 63.9735 56.4185 66.2603 55.5115C67.4202 55.0536 68.4079 54.3263 69.3478 53.346M92.1048 36.7639L91.367 42.3671C90.2251 42.3671 89.1041 42.3611 87.9847 42.3701C87.0778 42.3775 86.2487 42.9627 85.9763 43.8113C85.8715 44.1435 85.8296 44.4997 85.7847 44.8589L84.0876 57.7669L83.6641 61.0384H78.0369L78.3452 58.611L79.4467 50.2481L80.4285 43.0151C80.9343 39.7929 84.14 36.933 87.3906 36.7893L92.1018 36.7773"
          fill="#3C3A3E"/>
    <path d="M32.5513 28.6058H33.9461L33.6169 26.5106L32.5513 28.6058ZM34.1646 29.9707H31.8449L31.1071 31.4149H29.4639L33.0901 24.6279H34.6735L35.9082 31.4H34.3846L34.1661 29.9558"
          fill="#3C3A3E"/>
    <path d="M42.4676 26.0047H41.6415L41.3631 27.5686H42.1893C42.6876 27.5686 43.0872 27.2394 43.0872 26.6228C43.0872 26.2142 42.8358 26.0047 42.4676 26.0047ZM40.4667 24.6577H42.6367C43.7741 24.6577 44.5823 25.3342 44.5823 26.4985C44.5823 27.9622 43.5467 28.9484 42.0725 28.9484H41.1372L40.6987 31.4283H39.2859L40.4802 24.6562"
          fill="#3C3A3E"/>
    <path d="M49.3729 28.6058H50.7677L50.4384 26.5106L49.3729 28.6058ZM50.9862 29.9707H48.6665L47.9286 31.4149H46.2854L49.9116 24.6279H51.495L52.7297 31.4H51.2062L50.9877 29.9558"
          fill="#3C3A3E"/>
    <path d="M60.1589 31.1741C59.6783 31.3986 59.1553 31.5175 58.6249 31.5228C56.8335 31.5228 55.7065 30.1758 55.7065 28.4952C55.7065 26.3446 57.5024 24.5322 59.6725 24.5322C60.2113 24.5322 60.6976 24.6609 61.0942 24.8809L60.8952 26.5047C60.5959 26.1755 60.117 25.9465 59.5213 25.9465C58.2867 25.9465 57.1912 27.0629 57.1912 28.341C57.1912 29.3288 57.8077 30.092 58.785 30.092C59.3525 30.0899 59.9028 29.897 60.3474 29.5443L60.1574 31.1576M68.8016 28.6837H65.8534L65.3745 31.412H63.9617L65.156 24.64H66.5702L66.0913 27.3338H69.0396L69.5185 24.64H70.9328L69.7385 31.412H68.3242L68.8016 28.6837ZM73.9873 31.4135L75.1816 24.6415H78.923L78.6836 25.9884H76.3564L76.1169 27.3024H78.2675L78.0281 28.6673H75.8625L75.6231 30.0322H77.9637L77.7243 31.3971H73.9708"
          fill="#3C3A3E"/>
</svg>