<svg width="29" height="28" viewBox="0 0 29 28" fill="none" xmlns="http://www.w3.org/2000/svg">
    <path d="M26.2162 7.06566C24.9598 4.9129 23.2555 3.20857 21.1029 1.95226C18.95 0.695896 16.5997 0.0678711 14.0504 0.0678711C11.5013 0.0678711 9.15021 0.696088 6.99778 1.95226C4.84503 3.20851 3.14083 4.9129 1.88439 7.06566C0.628153 9.21834 0 11.5691 0 14.1178C0 17.1795 0.893241 19.9326 2.68017 22.3778C4.46691 24.8233 6.77512 26.5154 9.60459 27.4545C9.93395 27.5156 10.1778 27.4726 10.3363 27.3266C10.4949 27.1804 10.5741 26.9972 10.5741 26.778C10.5741 26.7414 10.5709 26.4122 10.5649 25.7901C10.5604 25.35 10.5576 24.9497 10.5564 24.5891C10.5556 24.3661 10.3546 24.1969 10.1348 24.2349V24.2349C9.86654 24.2841 9.52808 24.3049 9.11946 24.299C8.71103 24.2933 8.28703 24.2505 7.84803 24.1709C7.40884 24.092 7.00035 23.9091 6.62223 23.6225C6.2443 23.3358 5.976 22.9607 5.81741 22.4975L5.63447 22.0765C5.51253 21.7963 5.32055 21.4849 5.05828 21.1436C4.84149 20.8613 4.62269 20.6541 4.40179 20.5218C4.3119 20.468 4.2196 20.4178 4.13441 20.3568V20.3568C4.04906 20.2959 3.96986 20.2224 3.89662 20.1371C3.82345 20.0518 3.76866 19.9665 3.73207 19.881C3.69542 19.7954 3.72579 19.7253 3.82351 19.6702C3.86403 19.6474 3.9181 19.6295 3.9858 19.6163C4.22745 19.5691 4.47633 19.6067 4.71983 19.6431V19.6431C4.96377 19.692 5.26551 19.838 5.62543 20.0821C5.98517 20.326 6.28088 20.6431 6.51265 21.0332C6.79331 21.5333 7.13145 21.9145 7.52803 22.1767C7.92428 22.439 8.32381 22.5699 8.72621 22.5699C9.12862 22.5699 9.47618 22.5394 9.76901 22.4787C9.92029 22.4472 10.0667 22.4074 10.2083 22.3595C10.4532 22.2767 10.6158 21.9999 10.6777 21.749V21.749C10.836 21.1061 10.4391 20.1926 9.79573 20.0364C9.73413 20.0215 9.67334 20.0061 9.61337 19.9903C9.05858 19.8438 8.48528 19.6061 7.89385 19.2765C7.30209 18.9473 6.81119 18.5386 6.42102 18.0509C6.03079 17.563 5.71053 16.9225 5.46069 16.1299C5.21072 15.337 5.08571 14.4224 5.08571 13.3858C5.08571 12.6971 5.19062 12.0562 5.40041 11.4633C5.84399 10.2094 6.12095 8.89843 6.24208 7.57399V7.57399C6.33527 6.55493 7.28056 5.75627 8.23243 6.13192V6.13192C8.92767 6.40636 9.43671 6.64146 9.76004 6.83639V6.83639C10.2602 7.13779 10.8609 7.23076 11.4331 7.11453C12.2856 6.94137 13.1579 6.85478 14.0502 6.85478C14.9765 6.85478 15.8814 6.94808 16.7648 7.13466C17.2769 7.24283 17.8157 7.17086 18.2583 6.89143V6.89143C18.7337 6.59859 19.2951 6.33024 19.9411 6.08629V6.08629C20.8426 5.74629 21.6903 6.39501 21.8257 7.34887C21.8307 7.38435 21.8353 7.41972 21.8396 7.45499C22.001 8.78903 22.265 10.2161 22.7077 11.4848C22.9126 12.0719 23.0151 12.7056 23.0151 13.3859C23.0151 14.4226 22.8896 15.3401 22.64 16.1391C22.3901 16.9382 22.0671 17.5781 21.6708 18.0601C21.2741 18.542 20.7801 18.9476 20.1887 19.2767C19.5971 19.606 19.0236 19.8437 18.4688 19.9902V19.9902C17.7696 20.1748 17.3353 21.2611 17.4655 21.9725C17.5183 22.2611 17.5448 22.5761 17.5448 22.9176V26.7775C17.5448 26.9967 17.621 27.1798 17.7736 27.3261C17.9261 27.4721 18.1668 27.5151 18.4962 27.4539C21.326 26.515 23.6342 24.8228 25.4209 22.3773C27.2074 19.932 28.101 17.179 28.101 14.1173C28.1003 11.5689 27.4719 9.21834 26.2162 7.06566Z"
          fill="#3288FF"/>
</svg>