<svg width="29" height="28" viewBox="0 0 29 28" fill="none" xmlns="http://www.w3.org/2000/svg">
    <path d="M26.2162 6.99778C24.9598 4.84503 23.2555 3.1407 21.1029 1.88439C18.95 0.628024 16.5997 0 14.0504 0C11.5013 0 9.15021 0.628217 6.99778 1.88439C4.84503 3.14063 3.14083 4.84503 1.88439 6.99778C0.628153 9.15047 0 11.5012 0 14.05C0 17.1116 0.893241 19.8647 2.68017 22.31C4.46691 24.7554 6.77512 26.4476 9.60459 27.3866C9.93395 27.4478 10.1778 27.4048 10.3363 27.2587C10.4949 27.1125 10.5741 26.9294 10.5741 26.7101C10.5741 26.6735 10.5709 26.3443 10.5649 25.7222C10.5604 25.2821 10.5576 24.8818 10.5564 24.5212C10.5556 24.2982 10.3546 24.129 10.1348 24.167V24.167C9.86654 24.2162 9.52808 24.237 9.11946 24.2311C8.71103 24.2254 8.28703 24.1826 7.84803 24.103C7.40884 24.0242 7.00035 23.8412 6.62223 23.5546C6.2443 23.268 5.976 22.8928 5.81741 22.4296L5.63447 22.0087C5.51253 21.7284 5.32055 21.417 5.05828 21.0758C4.84149 20.7934 4.62269 20.5862 4.40179 20.454C4.3119 20.4002 4.2196 20.3499 4.13441 20.2889V20.2889C4.04906 20.228 3.96986 20.1545 3.89662 20.0692C3.82345 19.9839 3.76866 19.8986 3.73207 19.8131C3.69542 19.7276 3.72579 19.6574 3.82351 19.6024C3.86403 19.5795 3.9181 19.5616 3.9858 19.5484C4.22745 19.5013 4.47633 19.5389 4.71983 19.5753V19.5753C4.96377 19.6241 5.26551 19.7702 5.62543 20.0142C5.98517 20.2581 6.28088 20.5752 6.51265 20.9653C6.79331 21.4655 7.13145 21.8466 7.52803 22.1089C7.92428 22.3711 8.32381 22.5021 8.72621 22.5021C9.12862 22.5021 9.47618 22.4716 9.76901 22.4109C9.92029 22.3793 10.0667 22.3396 10.2083 22.2917C10.4532 22.2088 10.6158 21.9321 10.6777 21.6811V21.6811C10.836 21.0382 10.4391 20.1248 9.79573 19.9686C9.73413 19.9536 9.67334 19.9382 9.61337 19.9224C9.05858 19.7759 8.48528 19.5382 7.89385 19.2086C7.30209 18.8794 6.81119 18.4707 6.42102 17.9831C6.03079 17.4952 5.71053 16.8546 5.46069 16.0621C5.21072 15.2692 5.08571 14.3545 5.08571 13.3179C5.08571 12.6292 5.19062 11.9884 5.40041 11.3954C5.84399 10.1416 6.12095 8.83056 6.24208 7.50612V7.50612C6.33527 6.48706 7.28056 5.6884 8.23243 6.06405V6.06405C8.92767 6.33849 9.43671 6.57359 9.76004 6.76851V6.76851C10.2602 7.06992 10.8609 7.16289 11.4331 7.04665C12.2856 6.8735 13.1579 6.7869 14.0502 6.7869C14.9765 6.7869 15.8814 6.88021 16.7648 7.06679C17.2769 7.17496 17.8157 7.10299 18.2583 6.82356V6.82356C18.7337 6.53072 19.2951 6.26237 19.9411 6.01842V6.01842C20.8426 5.67842 21.6903 6.32714 21.8257 7.281C21.8307 7.31648 21.8353 7.35185 21.8396 7.38712C22.001 8.72115 22.265 10.1482 22.7077 11.4169C22.9126 12.004 23.0151 12.6377 23.0151 13.3181C23.0151 14.3547 22.8896 15.2722 22.64 16.0712C22.3901 16.8703 22.0671 17.5102 21.6708 17.9922C21.2741 18.4741 20.7801 18.8797 20.1887 19.2088C19.5971 19.5381 19.0236 19.7759 18.4688 19.9224V19.9224C17.7696 20.1069 17.3353 21.1933 17.4655 21.9046C17.5183 22.1932 17.5448 22.5083 17.5448 22.8497V26.7096C17.5448 26.9289 17.621 27.1119 17.7736 27.2582C17.9261 27.4042 18.1668 27.4472 18.4962 27.386C21.326 26.4471 23.6342 24.7549 25.4209 22.3094C27.2074 19.8642 28.101 17.1111 28.101 14.0495C28.1003 11.501 27.4719 9.15047 26.2162 6.99778Z"
          fill="#000018"/>
</svg>