<svg width="41" height="40" viewBox="0 0 41 56" fill="none" xmlns="http://www.w3.org/2000/svg">
    <path d="M13.2045 42.9921C13.2045 42.9921 11.0801 44.2275 14.7164 44.6455C19.1216 45.1481 21.373 45.076 26.2276 44.1572C26.2276 44.1572 27.5039 44.9575 29.2864 45.6506C18.4037 50.3147 4.65678 45.3805 13.2045 42.9921Z"
          fill="#5382A1"/>
    <path d="M11.8747 36.9056C11.8747 36.9056 9.49198 38.6694 13.1309 39.0458C17.8367 39.5312 21.553 39.5709 27.9835 38.3327C27.9835 38.3327 28.8729 39.2344 30.2715 39.7275C17.1137 43.575 2.45833 40.0309 11.8747 36.9056Z"
          fill="#5382A1"/>
    <path d="M23.0853 26.5811C25.7668 29.6683 22.3808 32.4465 22.3808 32.4465C22.3808 32.4465 29.1896 28.9316 26.0626 24.5301C23.1421 20.4255 20.9025 18.3861 33.0269 11.3544C33.0269 11.3544 13.9956 16.1075 23.0853 26.5811Z"
          fill="#E76F00"/>
    <path d="M37.4785 47.4939C37.4785 47.4939 39.0506 48.7892 35.7472 49.7913C29.4655 51.6942 9.60241 52.2689 4.08452 49.8671C2.10098 49.0042 5.82068 47.8067 6.99076 47.5554C8.21103 47.2908 8.90837 47.3401 8.90837 47.3401C6.70247 45.7862 -5.34966 50.3914 2.78648 51.7103C24.9749 55.3086 43.2339 50.0899 37.4785 47.4939Z"
          fill="#5382A1"/>
    <path d="M14.2261 30.5994C14.2261 30.5994 4.12243 32.9992 10.6481 33.8706C13.4035 34.2395 18.8962 34.1561 24.0125 33.7274C28.1939 33.3747 32.3925 32.6247 32.3925 32.6247C32.3925 32.6247 30.9181 33.2561 29.8514 33.9845C19.5913 36.6829 -0.229288 35.4276 5.4768 32.6674C10.3025 30.3348 14.2261 30.5994 14.2261 30.5994Z"
          fill="#5382A1"/>
    <path d="M32.3509 40.7304C42.7807 35.3107 37.9584 30.1023 34.5924 30.804C33.7674 30.9757 33.3996 31.1245 33.3996 31.1245C33.3996 31.1245 33.7058 30.6447 34.2908 30.4371C40.9497 28.096 46.0708 37.3417 32.1412 41.0036C32.1412 41.0036 32.3026 40.8594 32.3509 40.7304Z"
          fill="#5382A1"/>
    <path d="M26.0625 0C26.0625 0 31.8387 5.77816 20.584 14.6633C11.5589 21.7908 18.526 25.8547 20.5803 30.4978C15.3122 25.7447 11.4461 21.5605 14.0398 17.6662C17.8467 11.9498 28.3931 9.17826 26.0625 0Z"
          fill="#E76F00"/>
    <path d="M15.251 55.4169C25.2624 56.0577 40.6359 55.0613 41 50.3242C41 50.3242 40.3001 52.12 32.7262 53.5462C24.1813 55.1542 13.6423 54.9665 7.3916 53.9359C7.3916 53.9359 8.67121 54.9949 15.251 55.4169Z"
          fill="#5382A1"/>
</svg>