<svg width="50" height="44" viewBox="0 0 50 44" fill="none" xmlns="http://www.w3.org/2000/svg">
    <path d="M40.6611 14.2612C40.1481 14.0846 39.6165 13.9176 39.0691 13.7596C39.1591 13.3924 39.2417 13.03 39.3151 12.6737C40.5202 6.82405 39.7322 2.1115 37.0417 0.55993C34.4618 -0.927822 30.2425 0.623398 25.9813 4.33182C25.5715 4.68842 25.1606 5.06597 24.7499 5.46165C24.4762 5.19986 24.203 4.94686 23.9304 4.70488C19.4645 0.739594 14.9882 -0.931431 12.3002 0.62463C9.72281 2.11669 8.95952 6.54694 10.0443 12.0907C10.149 12.6262 10.2715 13.173 10.4099 13.729C9.77641 13.9088 9.1648 14.1006 8.57959 14.3045C3.34381 16.13 0 18.9908 0 21.9583C0 25.0232 3.58958 28.0973 9.04306 29.9613C9.47342 30.1084 9.91999 30.2474 10.3802 30.3795C10.2308 30.9808 10.1009 31.5701 9.99182 32.1448C8.95749 37.5924 9.76523 41.9179 12.3358 43.4006C14.991 44.9317 19.4471 43.3579 23.7862 39.565C24.1292 39.2651 24.4734 38.9472 24.8182 38.6139C25.2651 39.0443 25.7113 39.4516 26.1551 39.8336C30.3581 43.4504 34.5092 44.9109 37.0774 43.4241C39.7299 41.8885 40.592 37.2418 39.4728 31.5884C39.3873 31.1566 39.2879 30.7155 39.1762 30.2665C39.4891 30.174 39.7963 30.0785 40.0959 29.9792C45.7653 28.1008 49.454 25.0641 49.454 21.9583C49.454 18.9801 46.0023 16.0999 40.6611 14.2612ZM39.4314 27.9739C39.161 28.0634 38.8836 28.1499 38.6008 28.2338C37.9749 26.2524 37.1302 24.1455 36.0965 21.9686C37.083 19.8437 37.895 17.7637 38.5034 15.7951C39.0093 15.9415 39.5003 16.0959 39.9734 16.2588C44.5498 17.8343 47.3413 20.1635 47.3413 21.9583C47.3413 23.8701 44.3266 26.3519 39.4314 27.9739ZM37.4003 31.9987C37.8952 34.4986 37.9659 36.7587 37.6381 38.5256C37.3435 40.1133 36.7512 41.1718 36.0188 41.5958C34.4603 42.4979 31.1274 41.3253 27.533 38.2321C27.1209 37.8776 26.7058 37.499 26.2895 37.0983C27.683 35.5742 29.0756 33.8025 30.4349 31.8348C32.8256 31.6227 35.0843 31.2759 37.1326 30.8024C37.2335 31.2093 37.3231 31.6084 37.4003 31.9987ZM16.86 41.4399C15.3373 41.9776 14.1245 41.993 13.3914 41.5703C11.8315 40.6706 11.183 37.1976 12.0676 32.5388C12.1689 32.0053 12.2895 31.4572 12.4285 30.897C14.4544 31.345 16.6965 31.6673 19.093 31.8616C20.4614 33.787 21.8943 35.5568 23.3383 37.1065C23.0228 37.411 22.7085 37.701 22.396 37.9742C20.4773 39.6514 18.5545 40.8414 16.86 41.4399ZM9.72633 27.9622C7.3149 27.138 5.32346 26.0668 3.95842 24.8978C2.73184 23.8474 2.11257 22.8045 2.11257 21.9583C2.11257 20.1576 4.79732 17.8607 9.27501 16.2995C9.81831 16.1101 10.3871 15.9315 10.9773 15.7639C11.5961 17.7769 12.4079 19.8815 13.3876 22.0097C12.3952 24.1696 11.5719 26.3078 10.947 28.3444C10.5262 28.2234 10.1186 28.0961 9.72633 27.9622ZM12.1176 11.685C11.1882 6.93523 11.8054 3.35216 13.3587 2.45305C15.0132 1.49522 18.6717 2.86088 22.5276 6.28471C22.7741 6.50354 23.0215 6.73259 23.2697 6.96956C21.8328 8.51241 20.413 10.2689 19.0568 12.183C16.7309 12.3986 14.5045 12.7449 12.4576 13.2086C12.3289 12.6909 12.2149 12.1823 12.1176 11.685ZM33.4498 16.9525C32.9605 16.1072 32.4581 15.282 31.9459 14.4793C33.5238 14.6787 35.0356 14.9435 36.4553 15.2676C36.0291 16.6336 35.4978 18.0618 34.8725 19.526C34.4239 18.6743 33.9494 17.8156 33.4498 16.9525ZM24.7506 8.47941C25.725 9.53512 26.7009 10.7138 27.6608 11.9927C26.6935 11.947 25.7143 11.9232 24.727 11.9232C23.749 11.9232 22.777 11.9465 21.8157 11.9913C22.7766 10.7244 23.7609 9.54727 24.7506 8.47941ZM15.9956 16.9671C15.5068 17.8147 15.0412 18.6688 14.5996 19.5244C13.9844 18.0653 13.4581 16.6306 13.0281 15.2452C14.4391 14.9294 15.9438 14.6713 17.5116 14.4756C16.9923 15.2857 16.4858 16.1172 15.9956 16.9671ZM17.5568 29.5918C15.9369 29.4111 14.4096 29.1662 12.999 28.8592C13.4358 27.4491 13.9737 25.9837 14.602 24.4932C15.0447 25.3482 15.5122 26.2026 16.004 27.052C16.505 27.9174 17.0241 28.7651 17.5568 29.5918ZM24.809 35.5862C23.8077 34.5059 22.809 33.3108 21.8335 32.0253C22.7804 32.0625 23.7458 32.0815 24.727 32.0815C25.735 32.0815 26.7315 32.0588 27.7123 32.0151C26.7492 33.3237 25.7769 34.5206 24.809 35.5862ZM34.8927 24.4172C35.5537 25.9238 36.1109 27.3815 36.5533 28.7676C35.1194 29.0947 33.5713 29.3582 31.9401 29.554C32.4535 28.7404 32.9603 27.901 33.4583 27.0375C33.962 26.1639 34.4404 25.289 34.8927 24.4172ZM31.6283 25.9821C30.8552 27.3225 30.0615 28.602 29.2558 29.8099C27.7883 29.9148 26.2722 29.9688 24.727 29.9688C23.188 29.9688 21.691 29.921 20.2495 29.8275C19.4113 28.6038 18.6004 27.3204 17.8322 25.9936C17.0661 24.6704 16.3612 23.336 15.7223 22.009C16.361 20.679 17.0643 19.3431 17.826 18.0223L17.8258 18.0225C18.5895 16.6982 19.3933 15.4211 20.2238 14.2051C21.6945 14.0939 23.2027 14.0359 24.7269 14.0359C26.258 14.0359 27.7682 14.0943 29.2385 14.2065C30.0563 15.4136 30.8546 16.6866 31.6213 18.0111C32.3967 19.3505 33.1091 20.6775 33.7532 21.979C33.111 23.3029 32.4003 24.6433 31.6283 25.9821ZM35.9864 2.3902C37.6425 3.34521 38.2865 7.19676 37.246 12.2473C37.1796 12.5696 37.1049 12.8979 37.0237 13.2305C34.972 12.7571 32.744 12.4048 30.4114 12.186C29.0525 10.2509 27.6443 8.49164 26.2309 6.96859C26.6109 6.60301 26.9904 6.25442 27.3683 5.92547C31.0193 2.74812 34.4317 1.49364 35.9864 2.3902ZM24.727 17.5423C27.1659 17.5423 29.1431 19.5194 29.1431 21.9583C29.1431 24.3972 27.1659 26.3744 24.727 26.3744C22.2881 26.3744 20.3109 24.3972 20.3109 21.9583C20.3109 19.5194 22.2881 17.5423 24.727 17.5423Z"
          fill="#00D8FF"/>
</svg>