<svg width="40" height="40" viewBox="0 0 40 40" fill="none" xmlns="http://www.w3.org/2000/svg">
    <g clip-path="url(#clip0_159_370)">
        <path d="M36.3793 2.08597C35.8166 3.42953 35.1029 4.7054 34.2433 5.87711C30.4819 2.11722 25.3764 0.00292969 20.0573 0.00292969C9.05444 0.00292969 0 9.06416 0 20.0782C0 25.5723 2.25059 30.832 6.23079 34.6231L6.97057 35.2793C10.5861 38.3257 15.1654 40.0025 19.8906 40.0025C30.3517 40.0025 39.1456 31.8058 39.8906 21.3593C40.4376 16.2455 38.9372 9.77761 36.3793 2.08597ZM9.08049 34.7377C8.75749 35.1386 8.26257 35.373 7.74681 35.373C6.80385 35.373 6.03282 34.5971 6.03282 33.6545C6.03282 32.7119 6.80906 31.936 7.74681 31.936C8.13754 31.936 8.52305 32.0714 8.82521 32.3213C9.55978 32.915 9.67439 34.0034 9.08049 34.7377ZM36.2959 28.7281C31.3467 35.3261 20.7762 33.1025 13.9984 33.4201C13.9984 33.4201 12.795 33.493 11.5864 33.6909C11.5864 33.6909 12.0396 33.4982 12.6283 33.2743C17.3847 31.6183 19.6353 31.2954 22.5267 29.8113C27.9708 27.0408 33.3524 20.9792 34.4725 14.6728C32.3991 20.7396 26.1162 25.9524 20.3907 28.0719C16.4678 29.5196 9.38265 30.9257 9.38265 30.9257L9.09612 30.7747C4.27195 28.426 4.12607 17.9744 12.894 14.5998C16.7335 13.1209 20.4064 13.9333 24.5533 12.9438C28.9815 11.8919 34.1026 8.56944 36.1865 4.23671C38.5204 11.168 41.3285 22.0207 36.2959 28.7281Z"
              fill="#77BC1F"/>
    </g>
    <defs>
        <clipPath id="clip0_159_370">
            <rect width="40" height="40" fill="white"/>
        </clipPath>
    </defs>
</svg>