<svg width="29" height="29" viewBox="0 0 29 29" fill="none" xmlns="http://www.w3.org/2000/svg">
    <path d="M26.2162 7.82493C24.9598 5.67218 23.2555 3.96785 21.1029 2.71154C18.95 1.45517 16.5997 0.827148 14.0504 0.827148C11.5013 0.827148 9.15021 1.45537 6.99778 2.71154C4.84503 3.96778 3.14083 5.67218 1.88439 7.82493C0.628153 9.97762 0 12.3284 0 14.8771C0 17.9387 0.893241 20.6918 2.68017 23.1371C4.46691 25.5826 6.77512 27.2747 9.60459 28.2138C9.93395 28.2749 10.1778 28.2319 10.3363 28.0859C10.4949 27.9397 10.5741 27.7565 10.5741 27.5372C10.5741 27.5007 10.5709 27.1715 10.5649 26.5494C10.5604 26.1093 10.5576 25.7089 10.5564 25.3484C10.5556 25.1253 10.3546 24.9562 10.1348 24.9942V24.9942C9.86654 25.0433 9.52808 25.0642 9.11946 25.0583C8.71103 25.0526 8.28703 25.0098 7.84803 24.9302C7.40884 24.8513 7.00035 24.6684 6.62223 24.3817C6.2443 24.0951 5.976 23.72 5.81741 23.2568L5.63447 22.8358C5.51253 22.5555 5.32055 22.2442 5.05828 21.9029C4.84149 21.6205 4.62269 21.4133 4.40179 21.2811C4.3119 21.2273 4.2196 21.1771 4.13441 21.1161V21.1161C4.04906 21.0552 3.96986 20.9817 3.89662 20.8964C3.82345 20.8111 3.76866 20.7257 3.73207 20.6403C3.69542 20.5547 3.72579 20.4845 3.82351 20.4295C3.86403 20.4067 3.9181 20.3887 3.9858 20.3755C4.22745 20.3284 4.47633 20.366 4.71983 20.4024V20.4024C4.96377 20.4513 5.26551 20.5973 5.62543 20.8414C5.98517 21.0853 6.28088 21.4023 6.51265 21.7924C6.79331 22.2926 7.13145 22.6738 7.52803 22.936C7.92428 23.1983 8.32381 23.3292 8.72621 23.3292C9.12862 23.3292 9.47618 23.2987 9.76901 23.238C9.92029 23.2065 10.0667 23.1667 10.2083 23.1188C10.4532 23.036 10.6158 22.7592 10.6777 22.5082V22.5082C10.836 21.8654 10.4391 20.9519 9.79573 20.7957C9.73413 20.7808 9.67334 20.7654 9.61337 20.7496C9.05858 20.6031 8.48528 20.3654 7.89385 20.0357C7.30209 19.7066 6.81119 19.2978 6.42102 18.8102C6.03079 18.3223 5.71053 17.6818 5.46069 16.8892C5.21072 16.0963 5.08571 15.1817 5.08571 14.145C5.08571 13.4563 5.19062 12.8155 5.40041 12.2225C5.84399 10.9687 6.12095 9.6577 6.24208 8.33327V8.33327C6.33527 7.31421 7.28056 6.51555 8.23243 6.89119V6.89119C8.92767 7.16564 9.43671 7.40074 9.76004 7.59566V7.59566C10.2602 7.89707 10.8609 7.99004 11.4331 7.8738C12.2856 7.70064 13.1579 7.61405 14.0502 7.61405C14.9765 7.61405 15.8814 7.70736 16.7648 7.89394C17.2769 8.00211 17.8157 7.93014 18.2583 7.65071V7.65071C18.7337 7.35787 19.2951 7.08951 19.9411 6.84557V6.84557C20.8426 6.50557 21.6903 7.15429 21.8257 8.10815C21.8307 8.14362 21.8353 8.179 21.8396 8.21427C22.001 9.5483 22.265 10.9753 22.7077 12.2441C22.9126 12.8312 23.0151 13.4649 23.0151 14.1452C23.0151 15.1819 22.8896 16.0994 22.64 16.8984C22.3901 17.6975 22.0671 18.3374 21.6708 18.8194C21.2741 19.3013 20.7801 19.7068 20.1887 20.0359C19.5971 20.3653 19.0236 20.603 18.4688 20.7495V20.7495C17.7696 20.934 17.3353 22.0204 17.4655 22.7317C17.5183 23.0204 17.5448 23.3354 17.5448 23.6769V27.5367C17.5448 27.756 17.621 27.9391 17.7736 28.0854C17.9261 28.2314 18.1668 28.2744 18.4962 28.2132C21.326 27.2743 23.6342 25.582 25.4209 23.1366C27.2074 20.6913 28.101 17.9382 28.101 14.8766C28.1003 12.3282 27.4719 9.97762 26.2162 7.82493Z"
          fill="#EA110C"/>
</svg>